<?xml version="1.0"?>
<svg xmlns="http://www.w3.org/2000/svg" xmlns:xlink="http://www.w3.org/1999/xlink" version="1.1" id="Capa_1" x="0px" y="0px" width="512px" height="512px" viewBox="0 0 419.803 419.803" style="enable-background:new 0 0 419.803 419.803;" xml:space="preserve" class=""><g><g>
	<g id="Layer_2_47_">
		<g>
			<path d="M350.229,59.434V12.265h-61.32v47.169H130.893V12.265h-61.32v47.169H0v348.104h419.803V59.434H350.229z M372.633,360.37     H47.169V143.874h325.466V360.37H372.633z" data-original="#000000" class="active-path" data-old_color="#FCF7F7" fill="#FDFBFB"/>
			<path d="M134.269,292.14c-14.842,0-29.299-7.105-32.047-8.529l-4.644-2.408l-9.167,33.719l2.637,1.665     c8.425,5.321,24.854,11.007,45.697,11.007c38.337,0,64.095-19.697,64.095-49.016c0-16.4-9.541-30.098-24.612-36.565     c12.765-7.437,19.66-19.021,19.66-33.438c0-20.251-16.338-40.686-52.839-40.686c-20.224,0-38.441,5.874-47.523,11.696     l-2.632,1.688l9.314,33.057l4.725-2.801c4.779-2.833,16.88-8.188,28.462-8.188c11.051,0,17.389,4.041,17.389,11.087     c0,11.889-19.725,12.617-21.891,12.661h-17.501v32.976h18.178c11.654,0,25.265,4.377,25.265,16.715     C156.835,286.396,148.4,292.14,134.269,292.14z" data-original="#000000" class="active-path" data-old_color="#FCF7F7" fill="#FDFBFB"/>
			<path d="M271.572,327.592c37.457,0,59.818-30.104,59.818-80.526c0-49.579-21.941-79.178-58.693-79.178     c-37.035,0-60.043,30.684-60.043,80.1c0.121,22.528,4.94,41.728,13.938,55.519C236.869,319.263,252.424,327.592,271.572,327.592z      M255.535,247.937c-0.188-28.479,5.904-38.896,9.557-42.57c2.105-2.121,4.447-3.152,7.158-3.152     c14.346,0,16.486,28.382,16.486,45.302c0,17.086-2.113,45.75-16.264,45.75c-2.951,0-5.445-1.066-7.623-3.26     C260.501,285.629,255.354,274.786,255.535,247.937z" data-original="#000000" class="active-path" data-old_color="#FCF7F7" fill="#FDFBFB"/>
		</g>
	</g>
</g></g> </svg>
