<?xml version="1.0"?>
<svg xmlns="http://www.w3.org/2000/svg" xmlns:xlink="http://www.w3.org/1999/xlink" version="1.1" id="Capa_1" x="0px" y="0px" viewBox="0 0 459.755 459.755" style="enable-background:new 0 0 459.755 459.755;" xml:space="preserve" width="512px" height="512px" class=""><g><g>
	<g>
		<g>
			<path d="M229.878,88.033c23.083,0,41.796-18.713,41.796-41.796S252.961,4.441,229.878,4.441s-41.796,18.713-41.796,41.796     S206.794,88.033,229.878,88.033z M229.878,25.339c11.542,0,20.898,9.356,20.898,20.898s-9.356,20.898-20.898,20.898     s-20.898-9.356-20.898-20.898S218.336,25.339,229.878,25.339z" data-original="#000000" class="active-path" data-old_color="#F2EBEB" fill="#FFFBFB"/>
			<path d="M245.06,94.812c-0.185,0.003-0.369,0.008-0.553,0.013h-29.257c-31.439-0.871-57.631,23.91-58.502,55.349     c-0.005,0.184-0.009,0.369-0.013,0.553v8.359c0,5.747,5.747,8.882,11.494,8.882h123.298c5.747,0,11.494-3.135,11.494-8.882     v-8.359C302.455,119.281,276.505,94.247,245.06,94.812z M178.678,147.069c1.045-15.673,17.241-31.347,36.571-31.347h29.257     c19.331,0,35.527,15.673,36.571,31.347H178.678z" data-original="#000000" class="active-path" data-old_color="#F2EBEB" fill="#FFFBFB"/>
			<path d="M60.082,269.845c5.771,0,10.449-4.678,10.449-10.449c-0.033-48.336,21.875-94.074,59.559-124.343     c4.134-4.027,4.22-10.642,0.193-14.776c-3.503-3.596-9.069-4.192-13.254-1.42c-42.667,34.161-67.47,85.881-67.396,140.539     C49.633,265.167,54.311,269.845,60.082,269.845z" data-original="#000000" class="active-path" data-old_color="#F2EBEB" fill="#FFFBFB"/>
			<path d="M280.8,410.293c-0.082,0.029-0.164,0.059-0.245,0.09c-32.719,10.952-68.114,10.952-100.833,0     c-5.48-1.708-11.312,1.325-13.061,6.792c-1.985,5.11,0.549,10.862,5.659,12.847c0.201,0.078,0.404,0.15,0.61,0.214     c37.108,12.541,77.309,12.541,114.416,0c5.538-1.976,8.534-7.967,6.792-13.584C292.212,411.214,286.24,408.366,280.8,410.293z" data-original="#000000" class="active-path" data-old_color="#F2EBEB" fill="#FFFBFB"/>
			<path d="M321.829,129.306c42.319,29.793,67.468,78.336,67.396,130.09c0,5.771,4.678,10.449,10.449,10.449     s10.449-4.678,10.449-10.449c-0.145-58.546-28.554-113.418-76.278-147.331c-4.761-3.318-11.31-2.149-14.629,2.612     C315.898,119.438,317.068,125.988,321.829,129.306z" data-original="#000000" class="active-path" data-old_color="#F2EBEB" fill="#FFFBFB"/>
			<path d="M73.143,375.38c23.083,0,41.796-18.713,41.796-41.796s-18.713-41.796-41.796-41.796S31.347,310.5,31.347,333.584     S50.06,375.38,73.143,375.38z M73.143,312.686c11.542,0,20.898,9.356,20.898,20.898s-9.356,20.898-20.898,20.898     s-20.898-9.356-20.898-20.898S61.601,312.686,73.143,312.686z" data-original="#000000" class="active-path" data-old_color="#F2EBEB" fill="#FFFBFB"/>
			<path d="M88.325,382.159c-0.185,0.003-0.369,0.008-0.553,0.013H58.514c-31.439-0.871-57.631,23.91-58.502,55.349     c-0.005,0.184-0.009,0.369-0.013,0.553v8.359c0,5.747,5.747,8.882,11.494,8.882h123.298c5.747,0,11.494-3.135,11.494-8.882     v-8.359C145.721,406.628,119.771,381.594,88.325,382.159z M21.943,434.416c1.045-15.673,17.241-31.347,36.571-31.347h29.257     c19.331,0,35.527,15.673,36.571,31.347H21.943z" data-original="#000000" class="active-path" data-old_color="#F2EBEB" fill="#FFFBFB"/>
			<path d="M344.816,333.584c0,23.083,18.713,41.796,41.796,41.796s41.796-18.713,41.796-41.796s-18.713-41.796-41.796-41.796     S344.816,310.5,344.816,333.584z M407.51,333.584c0,11.542-9.356,20.898-20.898,20.898s-20.898-9.356-20.898-20.898     s9.356-20.898,20.898-20.898S407.51,322.042,407.51,333.584z" data-original="#000000" class="active-path" data-old_color="#F2EBEB" fill="#FFFBFB"/>
			<path d="M401.794,382.159c-0.185,0.003-0.369,0.008-0.553,0.013h-29.257c-31.439-0.871-57.631,23.91-58.502,55.349     c-0.005,0.184-0.009,0.369-0.013,0.553v8.359c0,5.747,5.747,8.882,11.494,8.882h123.298c5.747,0,11.494-3.135,11.494-8.882     v-8.359C459.19,406.628,433.24,381.594,401.794,382.159z M335.412,434.416c1.045-15.673,17.241-31.347,36.571-31.347h29.257     c19.331,0,35.527,15.673,36.571,31.347H335.412z" data-original="#000000" class="active-path" data-old_color="#F2EBEB" fill="#FFFBFB"/>
		</g>
	</g>
</g></g> </svg>
