<?xml version="1.0"?>
<svg xmlns="http://www.w3.org/2000/svg" xmlns:xlink="http://www.w3.org/1999/xlink" version="1.1" id="Capa_1" x="0px" y="0px" viewBox="0 0 512 512" style="enable-background:new 0 0 512 512;" xml:space="preserve" width="512px" height="512px" class=""><g><g>
	<g>
		<path d="M502,282.05H360.836c2.646-5.092,4.15-10.868,4.15-16.992c0-20.398-16.595-36.993-36.993-36.993S291,244.659,291,265.058    c0,6.124,1.505,11.9,4.15,16.992h-39.023c-5.522,0-10,4.478-10,10V330c0,2.943,1.297,5.737,3.544,7.637l93.798,79.29V502    c0,3.8,2.153,7.271,5.557,8.959c1.408,0.698,2.929,1.041,4.442,1.041c2.146,0,4.278-0.69,6.053-2.039l51.189-38.91    c2.487-1.891,3.948-4.836,3.948-7.961v-46.163l93.798-79.29c2.247-1.899,3.544-4.693,3.544-7.637v-37.95    C512,286.527,507.522,282.05,502,282.05z M327.993,248.065c9.37,0,16.993,7.623,16.993,16.993c0,9.369-7.623,16.992-16.993,16.992    c-9.37,0-16.993-7.623-16.993-16.992C311,255.688,318.623,248.065,327.993,248.065z M492,325.359l-93.798,79.29    c-2.247,1.899-3.544,4.693-3.544,7.637v45.844l-31.189,23.708v-69.552c0-2.943-1.297-5.737-3.544-7.637L283.446,340h112.887    c5.522,0,10-4.478,10-10c0-5.522-4.478-10-10-10H266.127v-17.95H492V325.359z" data-original="#000000" class="active-path" data-old_color="#FDFBFB" fill="#FFFDFD"/>
	</g>
</g><g>
	<g>
		<path d="M294.354,70.864c-3.649,0-7.275,0.278-10.851,0.83c-6.037-18.834-17.501-35.762-32.943-48.406    C232.22,8.271,209.042,0,185.298,0c-21.257,0-41.668,6.42-59.028,18.565c-14.248,9.969-25.613,23.172-33.269,38.555    c-4.368-1.138-8.879-1.712-13.491-1.712c-29.472,0-53.448,23.977-53.448,53.448c0,1.275,0.047,2.554,0.139,3.831    C10.063,122.207,0,139.512,0,158.679c0,29.472,23.977,53.448,53.448,53.448h240.906c38.947,0,70.632-31.685,70.632-70.631    C364.986,102.55,333.3,70.864,294.354,70.864z M294.355,192.128H53.448C35.005,192.127,20,177.122,20,158.679    c0-13.684,8.199-25.853,20.888-31.001c4.532-1.839,7.068-6.686,5.997-11.457c-0.546-2.435-0.823-4.912-0.823-7.364    c0-18.443,15.005-33.448,33.448-33.448c5.091,0,9.977,1.112,14.521,3.306c2.518,1.217,5.43,1.321,8.029,0.293    c2.6-1.03,4.649-3.101,5.652-5.711C119.963,41.418,151.143,20,185.298,20c38.971,0,73.144,27.619,81.257,65.673    c0.586,2.749,2.303,5.125,4.729,6.545c2.426,1.42,5.34,1.753,8.021,0.919c4.849-1.508,9.911-2.272,15.05-2.272    c27.919,0,50.632,22.713,50.632,50.632C344.987,169.415,322.274,192.128,294.355,192.128z" data-original="#000000" class="active-path" data-old_color="#FDFBFB" fill="#FFFDFD"/>
	</g>
</g><g>
	<g>
		<path d="M457.161,183.842c-22.651,0-41.079,18.428-41.079,41.079S434.51,266,457.161,266s41.079-18.428,41.079-41.079    S479.812,183.842,457.161,183.842z M457.161,246c-11.623,0-21.079-9.456-21.079-21.079c0-11.623,9.456-21.079,21.079-21.079    c11.623,0,21.079,9.456,21.079,21.079C478.24,236.544,468.784,246,457.161,246z" data-original="#000000" class="active-path" data-old_color="#FDFBFB" fill="#FFFDFD"/>
	</g>
</g><g>
	<g>
		<path d="M388.333,177.667c-5.522,0-10,4.478-10,10v37.254c0,5.522,4.478,10,10,10c5.522,0,10-4.478,10-10v-37.254    C398.333,182.145,393.855,177.667,388.333,177.667z" data-original="#000000" class="active-path" data-old_color="#FDFBFB" fill="#FFFDFD"/>
	</g>
</g><g>
	<g>
		<path d="M448,54h-68.95c-5.522,0-10,4.478-10,10s4.477,10,10,10H438v82.32c0,5.522,4.478,10,10,10c5.522,0,10-4.478,10-10V64    C458,58.478,453.522,54,448,54z" data-original="#000000" class="active-path" data-old_color="#FDFBFB" fill="#FFFDFD"/>
	</g>
</g><g>
	<g>
		<path d="M207.406,438.012H74V297c0-5.522-4.478-10-10-10c-5.522,0-10,4.478-10,10v151.012c0,5.522,4.478,10,10,10h143.406    c5.522,0,10-4.478,10-10C217.406,442.49,212.929,438.012,207.406,438.012z" data-original="#000000" class="active-path" data-old_color="#FDFBFB" fill="#FFFDFD"/>
	</g>
</g><g>
	<g>
		<path d="M71.069,248.93C69.21,247.069,66.63,246,64,246s-5.21,1.069-7.07,2.93C55.07,250.79,54,253.37,54,256    s1.069,5.21,2.93,7.069C58.79,264.93,61.37,266,64,266s5.21-1.07,7.069-2.931C72.93,261.21,74,258.63,74,256    S72.93,250.79,71.069,248.93z" data-original="#000000" class="active-path" data-old_color="#FDFBFB" fill="#FFFDFD"/>
	</g>
</g><g>
	<g>
		<path d="M125.372,126.751l18.365-18.365c3.907-3.907,3.907-10.239,0.001-14.144c-3.906-3.904-10.236-3.904-14.143,0    l-25.437,25.437c-3.905,3.905-3.905,10.237,0,14.143l25.437,25.437c1.953,1.952,4.512,2.929,7.071,2.929s5.118-0.977,7.071-2.929    c3.905-3.905,3.905-10.237,0-14.143L125.372,126.751z" data-original="#000000" class="active-path" data-old_color="#FDFBFB" fill="#FFFDFD"/>
	</g>
</g><g>
	<g>
		<path d="M260.826,119.678L235.39,94.242c-3.906-3.904-10.236-3.904-14.143,0c-3.905,3.905-3.905,10.237,0,14.143l18.365,18.365    l-18.365,18.365c-3.905,3.905-3.905,10.237,0,14.143c1.953,1.952,4.512,2.929,7.071,2.929s5.118-0.977,7.071-2.929l25.437-25.437    C264.731,129.916,264.731,123.584,260.826,119.678z" data-original="#000000" class="active-path" data-old_color="#FDFBFB" fill="#FFFDFD"/>
	</g>
</g><g>
	<g>
		<path d="M205.518,87.571c-4.762-2.799-10.89-1.207-13.688,3.555l-35.916,61.115c-2.799,4.762-1.207,10.89,3.555,13.688    c1.592,0.936,3.335,1.381,5.057,1.381c3.429,0,6.769-1.766,8.631-4.936l35.916-61.115    C211.871,96.497,210.279,90.369,205.518,87.571z" data-original="#000000" class="active-path" data-old_color="#FDFBFB" fill="#FFFDFD"/>
	</g>
</g><g>
	<g>
		<path d="M442.069,322.93C440.21,321.07,437.63,320,435,320s-5.21,1.069-7.07,2.93c-1.86,1.861-2.93,4.44-2.93,7.07    s1.069,5.21,2.93,7.069c1.86,1.861,4.44,2.931,7.07,2.931s5.21-1.07,7.069-2.931C443.93,335.21,445,332.63,445,330    S443.93,324.79,442.069,322.93z" data-original="#000000" class="active-path" data-old_color="#FDFBFB" fill="#FFFDFD"/>
	</g>
</g></g> </svg>
