<?xml version="1.0"?>
<svg xmlns="http://www.w3.org/2000/svg" xmlns:xlink="http://www.w3.org/1999/xlink" version="1.1" id="Capa_1" x="0px" y="0px" viewBox="0 0 480.653 480.653" style="enable-background:new 0 0 480.653 480.653;" xml:space="preserve" width="512px" height="512px" class=""><g><g>
	<g>
		<g>
			<path d="M70.531,271.673c5.771,0,10.449-4.678,10.449-10.449c-0.033-48.336,21.875-94.074,59.559-124.343     c4.134-4.027,4.22-10.642,0.193-14.776c-3.503-3.596-9.069-4.192-13.254-1.42c-42.667,34.161-67.47,85.881-67.396,140.539     C60.082,266.995,64.76,271.673,70.531,271.673z" data-original="#000000" class="active-path" data-old_color="#F9F9F9" fill="#FCFBFB"/>
			<path d="M291.249,412.122c-0.082,0.029-0.164,0.059-0.245,0.09c-32.719,10.952-68.114,10.952-100.833,0     c-5.48-1.708-11.312,1.325-13.061,6.792c-1.985,5.11,0.549,10.862,5.659,12.847c0.201,0.078,0.404,0.149,0.61,0.214     c37.108,12.541,77.309,12.541,114.416,0c5.538-1.976,8.534-7.967,6.792-13.584C302.661,413.042,296.689,410.195,291.249,412.122z     " data-original="#000000" class="active-path" data-old_color="#F9F9F9" fill="#FCFBFB"/>
			<path d="M332.278,131.135c42.319,29.793,67.468,78.336,67.396,130.09c0,5.771,4.678,10.449,10.449,10.449     s10.449-4.678,10.449-10.449c-0.145-58.546-28.554-113.418-76.278-147.331c-4.761-3.318-11.31-2.149-14.629,2.612     C326.347,121.267,327.517,127.816,332.278,131.135z" data-original="#000000" class="active-path" data-old_color="#F9F9F9" fill="#FCFBFB"/>
			<path d="M313.469,85.159c5.717-3.331,9.573-9.116,10.449-15.673V53.812c0-4.702-5.224-8.359-10.449-9.927v-5.224     c0-12.016-7.837-22.988-20.375-22.988H187.559c-12.539,0-20.376,10.971-20.376,22.988v5.224     c-5.224,1.567-10.449,5.224-10.449,9.927v15.673c0,6.269,5.224,12.016,10.449,16.196v74.188c0,12.016,7.837,22.988,20.376,22.988     h105.535c12.539,0,20.375-10.971,20.375-22.988V85.159z M182.335,69.486c0,0.866-0.702,1.567-1.567,1.567h-0.522     c0-0.289-0.234-0.522-0.522-0.522v-6.269h3.135L182.335,69.486z M261.224,161.959h-41.796v-31.347h41.796V161.959z      M293.094,161.959h-10.971v-40.229c0.052-6.07-4.431-11.225-10.449-12.016h-62.171c-6.112,0.766-10.763,5.86-10.971,12.016     v40.229h-10.971c-0.522,0,0.522-1.567,0.522-2.09V91.429c0-0.522,1.567-0.522,2.612-1.045c4.861,5.243,11.659,8.264,18.808,8.359     c5.581-0.013,10.966-2.056,15.151-5.747c4.415,3.649,9.946,5.677,15.673,5.747c5.9,0.008,11.621-2.022,16.196-5.747     c4.37,3.727,9.93,5.766,15.673,5.747c6.873,0.009,13.39-3.057,17.763-8.359l2.612,1.045v68.441     C292.571,160.392,294.139,161.959,293.094,161.959z M203.755,72.098v-9.404h10.449v9.404c0,2.885-2.339,5.224-5.224,5.224     C206.094,77.322,203.755,74.983,203.755,72.098z M235.102,72.098v-9.404h10.449v9.404c0,2.885-2.339,5.224-5.224,5.224     C237.441,77.322,235.102,74.983,235.102,72.098z M266.449,71.575v-8.882h10.449v8.882c0,2.885-2.339,5.224-5.224,5.224     C268.788,76.8,266.449,74.461,266.449,71.575z M292.571,38.661v3.135h-104.49v-3.135c0-0.522-1.045-2.09-0.522-2.09h105.535     C294.139,36.571,292.571,38.139,292.571,38.661z M301.453,69.486c0,0.866-0.702,1.567-1.567,1.567l-1.567-1.045v-5.747h3.135     V69.486z" data-original="#000000" class="active-path" data-old_color="#F9F9F9" fill="#FCFBFB"/>
			<path d="M156.735,326.008v-5.224c0-12.016-7.837-22.988-20.375-22.988H30.825c-12.539,0-20.376,10.971-20.376,22.988v5.224     C5.224,327.576,0,331.233,0,335.935v15.673c0,6.269,5.224,12.016,10.449,16.196v74.188c0,12.016,7.837,22.988,20.376,22.988     h105.535c12.539,0,20.375-10.971,20.375-22.988v-74.71c5.717-3.331,9.573-9.116,10.449-15.674v-15.673     C167.184,331.233,161.959,327.576,156.735,326.008z M25.6,351.608c0,0.866-0.702,1.567-1.567,1.567h-1.045     c-0.302-0.268-0.489-0.642-0.522-1.045v-5.224H25.6V351.608z M104.49,444.082H62.694v-31.347h41.796V444.082z M136.359,444.082     h-10.971v-40.229c0.052-6.07-4.431-11.225-10.449-12.016H52.767c-6.112,0.766-10.763,5.86-10.971,12.016v40.229H30.825     c-0.522,0,0.522-1.567,0.522-2.09v-68.441l2.612-1.045c4.861,5.243,11.659,8.264,18.808,8.359     c5.581-0.013,10.966-2.056,15.151-5.747c4.415,3.649,9.946,5.677,15.673,5.747c5.9,0.008,11.621-2.022,16.196-5.747     c4.37,3.727,9.93,5.766,15.673,5.747c6.873,0.009,13.39-3.057,17.763-8.359l2.612,1.045v68.441     C135.837,442.514,137.404,444.082,136.359,444.082z M47.02,354.22v-9.404h10.449v9.404c0,2.885-2.339,5.224-5.224,5.224     C49.359,359.445,47.02,357.106,47.02,354.22z M78.367,354.22v-9.404h10.449v9.404c0,2.885-2.339,5.224-5.224,5.224     C80.706,359.445,78.367,357.106,78.367,354.22z M109.714,353.698v-8.882h10.449v8.882c0,2.885-2.339,5.224-5.224,5.224     S109.714,356.583,109.714,353.698z M135.837,320.784v3.135H31.347v-3.135c0-0.522-1.045-2.09-0.522-2.09h105.535     C137.404,318.694,135.837,320.261,135.837,320.784z M144.718,351.608c0,0.866-0.702,1.567-1.567,1.567l-1.567-1.045v-5.747h3.135     V351.608z" data-original="#000000" class="active-path" data-old_color="#F9F9F9" fill="#FCFBFB"/>
			<path d="M470.204,326.008v-5.224c0-12.016-7.837-22.988-20.376-22.988H344.294c-12.539,0-20.375,10.971-20.375,22.988v5.224     c-5.224,1.567-10.449,5.224-10.449,9.927v15.673c0,6.269,5.225,12.016,10.449,16.196v74.188c0,12.016,7.837,22.988,20.375,22.988     h105.535c12.539,0,20.376-10.971,20.376-22.988v-74.71c5.717-3.331,9.573-9.116,10.449-15.674v-15.673     C480.653,331.233,475.429,327.576,470.204,326.008z M339.069,351.608c0,0.866-0.702,1.567-1.567,1.567h0h-1.045     c-0.302-0.268-0.489-0.642-0.522-1.045v-5.224h3.135V351.608z M417.959,444.082h-41.796v-31.347h41.796V444.082z      M449.829,444.082h-10.971v-40.229c0.052-6.07-4.431-11.225-10.449-12.016h-62.171c-6.112,0.766-10.763,5.86-10.971,12.016     v40.229h-10.971c-0.522,0,0.522-1.567,0.522-2.09v-68.441l2.612-1.045c4.861,5.243,11.659,8.264,18.808,8.359     c5.58-0.013,10.966-2.056,15.151-5.747c4.415,3.649,9.946,5.677,15.673,5.747c5.9,0.008,11.621-2.022,16.196-5.747     c4.37,3.727,9.93,5.766,15.673,5.747c6.873,0.009,13.39-3.057,17.763-8.359l2.612,1.045v68.441     C449.306,442.514,450.873,444.082,449.829,444.082z M360.49,354.22v-9.404h10.449v9.404c0,2.885-2.339,5.224-5.224,5.224     C362.829,359.445,360.49,357.106,360.49,354.22z M391.837,354.22v-9.404h10.449v9.404c0,2.885-2.339,5.224-5.224,5.224     C394.176,359.445,391.837,357.106,391.837,354.22z M423.184,353.698v-8.882h10.449v8.882c0,2.885-2.339,5.224-5.224,5.224     C425.523,358.922,423.184,356.583,423.184,353.698z M449.306,320.784v3.135h-104.49v-3.135c0-0.522-1.045-2.09-0.522-2.09     h105.535C450.873,318.694,449.306,320.261,449.306,320.784z M456.62,353.176L456.62,353.176l-1.567-1.045v-5.747h3.135l0,5.224     C458.188,352.474,457.486,353.176,456.62,353.176z" data-original="#000000" class="active-path" data-old_color="#F9F9F9" fill="#FCFBFB"/>
		</g>
	</g>
</g></g> </svg>
