<?xml version="1.0" encoding="UTF-8"?>
<svg width="1280px" height="10px" viewBox="0 0 1280 10" version="1.1" xmlns="http://www.w3.org/2000/svg" xmlns:xlink="http://www.w3.org/1999/xlink">
    <!-- Generator: Sketch 51.3 (57544) - http://www.bohemiancoding.com/sketch -->
    <title>Brand Element / Color Bar</title>
    <desc>Created with Sketch.</desc>
    <defs>
        <rect id="path-1" x="0" y="0" width="1280" height="10"></rect>
        <rect id="path-3" x="0" y="0" width="1280" height="20"></rect>
    </defs>
    <g id="Page-1" stroke="none" stroke-width="1" fill="none" fill-rule="evenodd">
        <g id="Brand-Element-/-Color-Bar">
            <g>
                <mask id="mask-2" fill="white">
                    <use xlink:href="#path-1"></use>
                </mask>
                <use id="Mask" fill="#D8D8D8" xlink:href="#path-1"></use>
                <g mask="url(#mask-2)">
                    <mask id="mask-4" fill="white">
                        <use xlink:href="#path-3"></use>
                    </mask>
                    <use id="Mask" fill="#D8D8D8" xlink:href="#path-3"></use>
                    <g mask="url(#mask-4)">
                        <polygon id="Rectangle-2-Copy-2" fill="#c62328" points="0 0 211.497418 0 187.263339 79 0 79"></polygon>
                        <polygon id="Rectangle-2-Copy-3" fill="#f26529" points="365.714286 79 176.247849 79 200.481928 0 389.948365 0"></polygon>
                        <polygon id="Rectangle-2-Copy-4" fill="#fff215" points="544.165232 79 354.698795 79 378.932874 0 568.399312 0"></polygon>
                        <polygon id="Rectangle-2-Copy-5" fill="#10ace3" points="722.616179 79 533.149742 79 557.383821 0 746.850258 0"></polygon>
                        <polygon id="Rectangle-2-Copy-6" fill="#0065e3" points="901.067126 79 711.600688 79 735.834768 0 925.301205 0"></polygon>
                        <polygon id="Rectangle-2-Copy-7" fill="#f1f0f0" points="1079.51807 79 890.051635 79 914.285714 0 1103.75215 0"></polygon>
                        <polygon id="Rectangle-2-Copy-8" fill="#58595b" points="1280 79 1068.50258 79 1092.73666 0 1280 0"></polygon>
                    </g>
                </g>
            </g>
        </g>
    </g>
</svg>