<?xml version="1.0"?>
<svg xmlns="http://www.w3.org/2000/svg" xmlns:xlink="http://www.w3.org/1999/xlink" version="1.1" id="Capa_1" x="0px" y="0px" viewBox="0 0 512 512" style="enable-background:new 0 0 512 512;" xml:space="preserve" width="512px" height="512px" class=""><g><g>
	<g>
		<path d="M256,91c-90.981,0-165,74.019-165,165s74.019,165,165,165s165-74.019,165-165S346.981,91,256,91z M241,390.162    c-10.399-1.155-20.445-3.495-30-6.884V301h30V390.162z M221.848,271L256,211.233L290.152,271H221.848z M301,383.279    c-9.555,3.388-19.601,5.729-30,6.884V301h30V383.279z M331,368.194v-86.178l-75-131.25l-75,131.25v86.178    c-36.154-24.247-60-65.487-60-112.194c0-74.439,60.561-135,135-135s135,60.561,135,135C391,302.708,367.154,343.947,331,368.194z" data-original="#000000" class="active-path" data-old_color="#FDFAFA" fill="#FDFBFB"/>
	</g>
</g><g>
	<g>
		<path d="M512,307.261V204.739l-39.919-11.604c-4.588-15.803-10.901-31.037-18.842-45.466l20.027-36.442l-72.493-72.494    L364.33,58.761c-14.43-7.941-29.663-14.254-45.466-18.843L307.261,0H204.739l-11.604,39.918    C177.333,44.506,162.1,50.82,147.67,58.761l-36.443-20.027l-72.493,72.494l20.027,36.442c-7.94,14.43-14.254,29.664-18.843,45.466    L0,204.74v102.521l39.918,11.604c4.588,15.802,10.902,31.036,18.843,45.466l-20.027,36.442l72.493,72.493l36.442-20.026    c14.431,7.941,29.664,14.254,45.467,18.843L204.739,512H307.26l11.604-39.918c15.803-4.588,31.036-10.902,45.467-18.843    l36.442,20.026l72.493-72.493l-20.027-36.442c7.941-14.429,14.254-29.663,18.842-45.466L512,307.261z M447.319,294.82    l-2.082,8.377c-4.658,18.747-12.079,36.654-22.058,53.226l-4.453,7.396l17.401,31.665l-40.644,40.644l-31.665-17.401l-7.396,4.453    c-16.573,9.978-34.48,17.4-53.227,22.059l-8.376,2.082L284.739,482H227.26l-10.082-34.68l-8.376-2.082    c-18.746-4.659-36.654-12.081-53.227-22.059l-7.396-4.453l-31.665,17.401L75.87,395.483l17.401-31.665l-4.453-7.396    c-9.979-16.574-17.4-34.482-22.06-53.227l-2.081-8.376L30,284.739V227.26l34.68-10.081l2.081-8.376    c4.66-18.746,12.082-36.654,22.06-53.227l4.453-7.396l-17.401-31.665l40.644-40.644l31.665,17.401l7.396-4.453    c16.572-9.978,34.48-17.4,53.227-22.059l8.376-2.082L227.261,30h57.479l10.082,34.68l8.376,2.082    c18.746,4.659,36.653,12.081,53.227,22.059l7.396,4.453l31.665-17.401l40.644,40.644l-17.401,31.665l4.453,7.396    c9.978,16.571,17.399,34.479,22.058,53.226l2.082,8.376L482,227.26v57.479L447.319,294.82z" data-original="#000000" class="active-path" data-old_color="#FDFAFA" fill="#FDFBFB"/>
	</g>
</g></g> </svg>
