<?xml version="1.0" encoding="utf-8"?>
<!-- Generator: Adobe Illustrator 21.0.0, SVG Export Plug-In . SVG Version: 6.00 Build 0)  -->
<svg version="1.1" id="Layer_1" xmlns="http://www.w3.org/2000/svg" xmlns:xlink="http://www.w3.org/1999/xlink" x="0px" y="0px"
	 viewBox="0 0 18 11.8" style="enable-background:new 0 0 18 11.8;" xml:space="preserve">
<path d="M18,5.8c0-0.3-0.2-0.6-0.4-0.8c0,0,0-0.1-0.1-0.1l-4.7-4.7c-0.4-0.4-1-0.4-1.4,0s-0.4,1,0,1.4l3.1,3.1H1c-0.6,0-1,0.4-1,1
	s0.4,1,1,1h13.5l-3.2,3.2c-0.4,0.4-0.4,1.1,0,1.5s1.1,0.4,1.5,0l4.9-4.9c0.1-0.1,0.2-0.3,0.2-0.4C18,6.1,18,6,18,5.8z"/>
</svg>
