<?xml version="1.0" standalone="no"?>
<!DOCTYPE svg PUBLIC "-//W3C//DTD SVG 1.1//EN" "http://www.w3.org/Graphics/SVG/1.1/DTD/svg11.dtd" >
<svg>
<metadata>
Created by FontForge 20120731 at Mon Aug 12 10:16:56 2019
 By www-data
Copyright (c) 2011 - 2012 Linotype Corp., www.linotype.com. All rights reserved. This font software may not be reproduced, modified, disclosed or transferred without the express written approval of Linotype Corp. Neue Haas Grotesk is a trademark of Linotype Corp. registered in the U.S. Patent and Trademark Office and may be registered in certain other jurisdictions in the name of Linotype Corp. or its licensee Linotype GmbH. This typeface is original artwork of Christian Schwartz. The design may be protected in certain jurisdictions.
</metadata>
<defs>
<font id="NHaasGroteskDSStd-45Lt" horiz-adv-x="500" >
  <font-face 
    font-family="NeueHaasGroteskDisp Std Lt"
    font-weight="400"
    font-stretch="normal"
    units-per-em="1000"
    panose-1="2 11 4 4 2 2 2 2 2 4"
    ascent="770"
    descent="-230"
    x-height="517"
    cap-height="715"
    bbox="-183 -214 1106 914"
    underline-thickness="50"
    underline-position="-75"
    stemh="53"
    stemv="62"
    unicode-range="U+0020-FB04"
  />
<missing-glyph 
 />
    <glyph glyph-name="f_f" unicode="ff" horiz-adv-x="493" 
d="M91 0v466h-75v51h75v87c0 77 42 111 121 111c6 0 30 0 34 -1v-53h-27c-51 0 -67 -19 -67 -59v-85h163v92c0 77 43 111 121 111c7 0 31 -1 35 -1v-53h-27c-51 0 -67 -20 -67 -59v-90h96v-51h-96v-466h-62v466h-163v-466h-61z" />
    <glyph glyph-name="fi" unicode="fi" horiz-adv-x="431" 
d="M91 0v466h-75v51h75v92c0 77 42 111 121 111c7 0 31 -1 35 -1v-53h-27c-52 0 -68 -20 -68 -59v-90h96v-51h-96v-466h-61zM315 0v517h62v-517h-62zM315 627v88h62v-88h-62z" />
    <glyph glyph-name="fl" unicode="fl" horiz-adv-x="433" 
d="M91 0v466h-75v51h75v92c0 77 42 111 121 111c7 0 31 -1 35 -1v-53h-27c-52 0 -68 -20 -68 -59v-90h96v-51h-96v-466h-61zM316 0v715h62v-715h-62z" />
    <glyph glyph-name="f_f_i" unicode="ffi" horiz-adv-x="655" 
d="M91 0v466h-75v51h75v87c0 77 42 111 121 111c6 0 30 0 34 -1v-53h-27c-51 0 -67 -19 -67 -59v-85h163v92c0 77 43 111 121 111c7 0 31 -1 35 -1v-53h-27c-51 0 -67 -20 -67 -59v-90h96v-51h-96v-466h-62v466h-163v-466h-61zM539 0v517h62v-517h-62zM539 627v88h62v-88
h-62z" />
    <glyph glyph-name="f_f_l" unicode="ffl" horiz-adv-x="657" 
d="M91 0v466h-75v51h75v87c0 77 42 111 121 111c6 0 30 0 34 -1v-53h-27c-51 0 -67 -19 -67 -59v-85h163v92c0 77 43 111 121 111c7 0 31 -1 35 -1v-53h-27c-51 0 -67 -20 -67 -59v-90h96v-51h-96v-466h-62v466h-163v-466h-61zM541 0v715h61v-715h-61z" />
    <glyph glyph-name=".notdef" 
 />
    <glyph glyph-name=".null" horiz-adv-x="0" 
 />
    <glyph glyph-name=".null" horiz-adv-x="0" 
 />
    <glyph glyph-name="space" unicode=" " horiz-adv-x="150" 
 />
    <glyph glyph-name="exclam" unicode="!" horiz-adv-x="212" 
d="M87 173l-15 313v229h68v-229l-14 -313h-39zM68 0v87h76v-87h-76z" />
    <glyph glyph-name="quotedbl" unicode="&#x22;" horiz-adv-x="276" 
d="M43 501v214h59v-214h-59zM174 501v214h59v-214h-59z" />
    <glyph glyph-name="numbersign" unicode="#" horiz-adv-x="562" 
d="M107 0l28 207h-102l8 55h101l24 170h-101l8 55h101l28 199h54l-27 -199h144l28 199h55l-28 -199h101l-8 -55h-101l-24 -170h100l-8 -55h-99l-28 -207h-55l28 207h-144l-29 -207h-54zM197 262h145l23 170h-144z" />
    <glyph glyph-name="dollar" unicode="$" horiz-adv-x="555" 
d="M257 -85v87c-155 11 -230 108 -236 226h63c6 -100 67 -163 173 -173v283c-127 27 -208 63 -208 181c0 106 84 176 208 181v57h46v-57c123 -10 190 -81 202 -185h-61c-9 78 -63 123 -141 131v-257c124 -25 221 -59 221 -190c0 -115 -92 -193 -221 -198v-86h-46zM257 398
v249c-91 -5 -147 -54 -147 -126c0 -71 44 -100 147 -123zM303 54c88 5 157 56 157 141c0 82 -46 109 -157 133v-274z" />
    <glyph glyph-name="percent" unicode="%" horiz-adv-x="799" 
d="M184 357c55 0 95 51 95 148c0 95 -42 147 -95 147c-55 0 -95 -50 -95 -147c0 -95 40 -148 95 -148zM184 310c-89 0 -154 72 -154 195c0 124 69 195 154 195c84 0 152 -69 152 -195c0 -123 -64 -195 -152 -195zM175 0l395 685h54l-394 -685h-55zM616 34c56 0 95 50 95 147
c0 95 -41 148 -95 148s-95 -51 -95 -148c0 -95 41 -147 95 -147zM616 -14c-88 0 -153 73 -153 195c0 125 69 195 153 195c85 0 153 -68 153 -195c0 -122 -64 -195 -153 -195z" />
    <glyph glyph-name="ampersand" unicode="&#x26;" horiz-adv-x="577" 
d="M245 -13c-114 0 -213 71 -213 190c0 111 73 165 164 217l-18 23c-42 55 -58 95 -58 147c0 80 65 142 150 142c78 0 147 -51 147 -146c0 -89 -66 -134 -139 -176l159 -205c17 42 27 92 28 146h57c0 -70 -16 -139 -46 -196l100 -129h-75l-60 77c-45 -55 -111 -90 -196 -90z
M247 424c73 42 108 79 108 138c0 57 -35 91 -85 91s-88 -35 -88 -90c0 -39 12 -69 43 -110zM248 42c68 0 121 31 158 81l-179 230c-70 -42 -130 -87 -130 -176c0 -81 62 -135 151 -135z" />
    <glyph glyph-name="quotesingle" unicode="'" horiz-adv-x="145" 
d="M43 501v214h59v-214h-59z" />
    <glyph glyph-name="parenleft" unicode="(" horiz-adv-x="284" 
d="M210 -118c-79 122 -137 265 -137 453c0 174 64 315 137 419h54c-67 -110 -120 -255 -120 -419c0 -177 42 -319 120 -453h-54z" />
    <glyph glyph-name="parenright" unicode=")" horiz-adv-x="284" 
d="M20 -118c71 120 120 263 120 433c0 171 -45 315 -120 439h54c77 -114 138 -257 138 -439c0 -180 -62 -322 -138 -433h-54z" />
    <glyph glyph-name="asterisk" unicode="*" horiz-adv-x="360" 
d="M112 443l-35 26l64 91l-100 35l15 39l100 -35v116h47v-116l101 35l15 -39l-100 -35l64 -91l-36 -26l-67 98z" />
    <glyph glyph-name="plus" unicode="+" horiz-adv-x="530" 
d="M237 105v194h-182v54h182v192h56v-192h182v-54h-182v-194h-56z" />
    <glyph glyph-name="comma" unicode="," horiz-adv-x="160" 
d="M42 -108v36c19 7 34 22 34 68v4h-34v87h76v-90c0 -66 -30 -96 -76 -105z" />
    <glyph glyph-name="hyphen" unicode="-" horiz-adv-x="326" 
d="M35 252v56h256v-56h-256z" />
    <glyph glyph-name="period" unicode="." horiz-adv-x="160" 
d="M42 0v87h76v-87h-76z" />
    <glyph glyph-name="slash" unicode="/" horiz-adv-x="381" 
d="M16 0l284 715h65l-284 -715h-65z" />
    <glyph glyph-name="zero" unicode="0" horiz-adv-x="583" 
d="M292 42c124 0 186 113 186 301c0 184 -65 302 -186 302c-122 0 -187 -114 -187 -302c0 -184 65 -301 187 -301zM291 -14c-162 0 -253 139 -253 357c0 222 99 357 254 357s253 -133 253 -357c0 -218 -90 -357 -254 -357z" />
    <glyph glyph-name="one" unicode="1" horiz-adv-x="327" 
d="M177 0v515h-144v44c101 5 148 28 160 130h49v-689h-65z" />
    <glyph glyph-name="two" unicode="2" horiz-adv-x="520" 
d="M32 0c3 176 122 243 230 308c93 56 157 90 157 190c0 92 -58 146 -148 146c-48 0 -87 -15 -114 -44c-27 -30 -42 -72 -43 -135h-66c0 77 22 133 61 172c41 41 101 62 166 62c129 0 210 -86 210 -199c0 -137 -98 -185 -199 -245c-79 -47 -166 -100 -180 -195h370v-60h-444
z" />
    <glyph glyph-name="three" unicode="3" horiz-adv-x="529" 
d="M267 -14c-137 0 -242 85 -243 226h65c4 -110 74 -169 177 -169s164 57 164 150c0 91 -62 144 -169 144h-48v53h47c94 0 147 50 147 127c0 83 -61 130 -142 130c-99 0 -155 -71 -155 -164h-64c1 126 82 217 221 217c115 0 204 -69 204 -183c0 -78 -42 -125 -103 -149v-3
c87 -28 128 -89 128 -177c0 -125 -94 -202 -229 -202z" />
    <glyph glyph-name="four" unicode="4" horiz-adv-x="537" 
d="M344 0v175h-320v60l329 457h54v-463h106v-54h-106v-175h-63zM89 229h255v354h-2l-253 -351v-3z" />
    <glyph glyph-name="five" unicode="5" horiz-adv-x="512" 
d="M252 -14c-129 0 -223 82 -226 199h64c11 -86 62 -140 161 -140c102 0 162 72 162 176c0 106 -66 170 -158 170c-77 0 -123 -31 -150 -70h-62l61 364h341v-58h-294l-38 -234h2c38 35 82 55 151 55c111 0 213 -79 213 -229c0 -138 -91 -233 -227 -233z" />
    <glyph glyph-name="six" unicode="6" horiz-adv-x="544" 
d="M289 -14c-70 0 -119 22 -159 58c-68 61 -92 161 -92 303c0 204 87 353 255 353c120 0 186 -79 197 -178h-65c-6 70 -54 122 -131 122c-134 0 -193 -125 -192 -314h2c41 71 105 111 187 111c126 0 217 -95 217 -223c1 -130 -90 -232 -219 -232zM287 40
c94 0 158 74 158 176s-65 171 -158 171c-97 0 -168 -71 -168 -173c0 -104 69 -174 168 -174z" />
    <glyph glyph-name="seven" unicode="7" horiz-adv-x="489" 
d="M128 0c19 239 133 487 276 625v2h-381v58h448v-56c-136 -133 -252 -360 -273 -629h-70z" />
    <glyph glyph-name="eight" unicode="8" horiz-adv-x="547" 
d="M275 -14c-126 0 -243 69 -243 206c0 96 58 153 135 180v3c-63 25 -102 78 -102 149c0 104 90 176 208 176c124 0 208 -75 208 -176c0 -71 -40 -123 -103 -148v-3c76 -24 136 -91 136 -181c0 -139 -113 -206 -239 -206zM275 41c108 0 174 63 174 151
c0 90 -66 153 -177 153c-110 0 -173 -63 -173 -153c0 -89 64 -151 176 -151zM272 398c90 0 145 54 145 123c0 71 -53 125 -144 125s-144 -54 -144 -125c0 -69 51 -123 143 -123z" />
    <glyph glyph-name="nine" unicode="9" horiz-adv-x="543" 
d="M256 -14c-120 0 -202 72 -209 182h66c6 -76 59 -126 141 -126c51 0 90 15 118 45c50 51 70 140 71 265h-2c-39 -68 -105 -107 -187 -107c-126 0 -218 95 -218 223c-1 130 93 232 224 232c66 0 114 -21 153 -54c71 -58 93 -160 93 -307c0 -128 -26 -230 -90 -293
c-40 -39 -95 -60 -160 -60zM259 299c99 0 168 71 168 172c0 105 -69 175 -166 175c-96 0 -162 -74 -162 -176s65 -171 160 -171z" />
    <glyph glyph-name="colon" unicode=":" horiz-adv-x="168" 
d="M46 0v87h76v-87h-76zM46 307v87h76v-87h-76z" />
    <glyph glyph-name="semicolon" unicode=";" horiz-adv-x="168" 
d="M46 -108v36c19 7 34 22 34 68v4h-34v87h76v-90c0 -66 -30 -96 -76 -105zM46 307v87h76v-87h-76z" />
    <glyph glyph-name="less" unicode="&#x3c;" horiz-adv-x="499" 
d="M445 109l-395 169v67l395 169v-59l-343 -142v-2l343 -143v-59z" />
    <glyph glyph-name="equal" unicode="=" horiz-adv-x="530" 
d="M55 204v53h420v-53h-420zM55 364v53h420v-53h-420z" />
    <glyph glyph-name="greater" unicode="&#x3e;" horiz-adv-x="499" 
d="M54 109v59l343 142v2l-343 143v59l395 -169v-67z" />
    <glyph glyph-name="question" unicode="?" horiz-adv-x="497" 
d="M199 173c0 114 28 159 102 222c45 38 89 73 89 149s-54 128 -138 128c-103 0 -159 -71 -161 -168h-64c2 116 70 224 228 224c125 0 202 -80 202 -183c0 -98 -54 -141 -104 -183c-73 -61 -94 -89 -94 -189h-60zM191 0v87h75v-87h-75z" />
    <glyph glyph-name="at" unicode="@" horiz-adv-x="870" 
d="M434 -102c-241 0 -396 155 -396 391c0 269 207 423 416 423c194 0 378 -127 378 -366c0 -149 -64 -256 -178 -256c-64 0 -97 37 -106 76h-2c-27 -49 -84 -85 -147 -85c-103 0 -165 77 -165 189c0 155 87 253 200 253c64 0 107 -33 128 -77h3l10 68h56l-34 -280
c-8 -58 11 -95 59 -95c73 0 121 74 121 205c0 212 -142 317 -325 317c-191 0 -358 -140 -358 -372c0 -201 119 -341 339 -341c69 0 132 15 191 38l18 -45c-62 -27 -131 -43 -208 -43zM402 130c102 0 147 93 147 206c0 82 -34 138 -114 138c-91 0 -139 -90 -139 -203
c0 -80 31 -141 106 -141z" />
    <glyph glyph-name="A" unicode="A" horiz-adv-x="634" 
d="M8 0l270 715h76l272 -715h-72l-83 225h-311l-84 -225h-68zM180 280h271l-98 267c-15 40 -36 104 -36 104h-2s-19 -61 -35 -104z" />
    <glyph glyph-name="B" unicode="B" horiz-adv-x="623" 
d="M64 0v715h297c64 0 116 -18 152 -52c33 -30 52 -74 52 -128c0 -81 -37 -130 -109 -155v-3c82 -23 139 -81 139 -176c0 -58 -18 -105 -52 -140c-37 -38 -95 -61 -169 -61h-310zM131 61h239c55 0 95 16 121 41c23 23 36 56 36 98c0 91 -63 143 -157 143h-239v-282zM131 401
h229c87 0 137 51 137 129c0 81 -52 126 -135 126h-231v-255z" />
    <glyph glyph-name="C" unicode="C" horiz-adv-x="677" 
d="M358 -13c-199 0 -322 151 -322 370c0 216 123 373 325 373c151 0 251 -84 275 -217h-66c-19 93 -93 159 -210 159c-168 0 -254 -139 -254 -315c0 -179 89 -311 253 -311c138 0 213 96 224 214h65c-4 -70 -31 -140 -74 -187c-50 -56 -125 -86 -216 -86z" />
    <glyph glyph-name="D" unicode="D" horiz-adv-x="660" 
d="M131 59h178c171 0 245 115 245 296s-67 301 -238 301h-185v-597zM64 0v715h254c211 0 306 -148 306 -360s-102 -355 -313 -355h-247z" />
    <glyph glyph-name="E" unicode="E" horiz-adv-x="598" 
d="M64 0v715h486v-59h-419v-257h384v-58h-384v-279h430v-62h-497z" />
    <glyph glyph-name="F" unicode="F" horiz-adv-x="556" 
d="M64 0v715h466v-59h-399v-254h340v-58h-340v-344h-67z" />
    <glyph glyph-name="G" unicode="G" horiz-adv-x="722" 
d="M364 -14c-209 0 -328 157 -328 371c0 211 121 372 338 372c147 0 256 -76 282 -221h-69c-22 107 -104 163 -213 163c-184 0 -268 -141 -268 -314c0 -176 89 -312 259 -312c165 0 236 114 236 238v25h-230v59h296v-367h-47l-14 114h-3c-37 -58 -107 -128 -239 -128z" />
    <glyph glyph-name="H" unicode="H" horiz-adv-x="667" 
d="M64 0v715h67v-309h405v309h67v-715h-67v350h-405v-350h-67z" />
    <glyph glyph-name="I" unicode="I" horiz-adv-x="202" 
d="M67 0v715h67v-715h-67z" />
    <glyph glyph-name="J" unicode="J" horiz-adv-x="475" 
d="M224 -13c-126 0 -202 65 -202 212v27h66v-24c0 -117 47 -158 138 -158c77 0 123 40 123 132v539h67v-544c0 -105 -62 -184 -192 -184z" />
    <glyph glyph-name="K" unicode="K" horiz-adv-x="625" 
d="M64 0v715h67v-381l386 381h87l-299 -291l317 -424h-80l-283 378l-128 -126v-252h-67z" />
    <glyph glyph-name="L" unicode="L" horiz-adv-x="536" 
d="M64 0v715h67v-653h381v-62h-448z" />
    <glyph glyph-name="M" unicode="M" horiz-adv-x="803" 
d="M64 0v715h91l247 -624h2l241 624h94v-715h-65v623h-2s-19 -57 -34 -97l-207 -526h-59l-209 526c-15 37 -35 97 -35 97h-2v-623h-62z" />
    <glyph glyph-name="N" unicode="N" horiz-adv-x="667" 
d="M64 0v715h73l329 -502c36 -54 71 -118 71 -118h2v620h64v-715h-70l-328 496c-33 50 -75 121 -75 121h-2v-617h-64z" />
    <glyph glyph-name="O" unicode="O" horiz-adv-x="738" 
d="M368 46c172 0 264 139 264 312s-92 312 -264 312c-171 0 -262 -139 -262 -312s91 -312 262 -312zM368 -14c-202 0 -332 159 -332 372s130 372 332 372c203 0 334 -159 334 -372s-131 -372 -334 -372z" />
    <glyph glyph-name="P" unicode="P" horiz-adv-x="586" 
d="M64 0v715h281c78 0 130 -22 168 -62c32 -34 50 -79 50 -138c0 -132 -77 -204 -227 -204h-205v-311h-67zM131 368h200c116 0 164 55 164 145c0 92 -55 143 -158 143h-206v-288z" />
    <glyph glyph-name="Q" unicode="Q" horiz-adv-x="738" 
d="M368 46c49 0 91 11 126 31l-77 64l36 45l90 -73c59 56 89 144 89 245c0 173 -92 312 -264 312c-171 0 -262 -139 -262 -312s91 -312 262 -312zM649 -49l-104 85c-49 -32 -109 -50 -177 -50c-202 0 -332 159 -332 372s130 372 332 372c203 0 334 -159 334 -372
c0 -118 -40 -218 -110 -285l94 -76z" />
    <glyph glyph-name="R" unicode="R" horiz-adv-x="631" 
d="M64 0v715h319c129 0 203 -74 203 -193c0 -88 -38 -146 -120 -172v-3c74 -25 98 -79 103 -190c5 -115 18 -144 31 -153v-4h-72c-16 11 -20 38 -26 160c-6 124 -49 159 -153 159h-218v-319h-67zM131 376h229c104 0 157 51 157 140s-40 140 -148 140h-238v-280z" />
    <glyph glyph-name="S" unicode="S" horiz-adv-x="599" 
d="M312 -13c-188 0 -281 106 -289 245h67c7 -121 89 -189 223 -189c105 0 183 53 183 150c0 101 -67 125 -220 156c-132 26 -225 66 -225 191c0 114 96 189 239 189c159 0 239 -86 252 -209h-65c-12 101 -84 153 -186 153c-109 0 -175 -52 -175 -131c0 -85 66 -111 194 -135
c139 -27 254 -61 254 -211c0 -127 -102 -209 -252 -209z" />
    <glyph glyph-name="T" unicode="T" horiz-adv-x="588" 
d="M261 0v655h-242v60h550v-60h-241v-655h-67z" />
    <glyph glyph-name="U" unicode="U" horiz-adv-x="636" 
d="M316 -11c-156 0 -260 74 -260 238v488h67v-482c0 -132 71 -186 196 -186c119 0 195 54 195 186v482h67v-488c0 -166 -110 -238 -265 -238z" />
    <glyph glyph-name="V" unicode="V" horiz-adv-x="604" 
d="M264 0l-256 715h70l185 -528c16 -44 38 -118 38 -118h2s23 77 39 121l186 525h68l-259 -715h-73z" />
    <glyph glyph-name="W" unicode="W" horiz-adv-x="880" 
d="M202 0l-190 715h69l124 -482c14 -53 33 -141 33 -141h2s20 86 34 137l131 486h72l131 -485c13 -51 33 -138 33 -138h2s20 88 33 141l125 482h67l-194 -715h-68l-136 521c-13 45 -28 116 -28 116h-2s-15 -70 -27 -116l-140 -521h-71z" />
    <glyph glyph-name="X" unicode="X" horiz-adv-x="590" 
d="M12 0l246 365l-232 350h77l195 -302h2l193 302h74l-231 -351l242 -364h-79l-203 316h-2l-206 -316h-76z" />
    <glyph glyph-name="Y" unicode="Y" horiz-adv-x="600" 
d="M265 0v312l-258 403h74l218 -346h2l220 346h72l-260 -405v-310h-68z" />
    <glyph glyph-name="Z" unicode="Z" horiz-adv-x="593" 
d="M26 0v65l437 590v3h-410v57h491v-57l-440 -595v-3h456v-60h-534z" />
    <glyph glyph-name="bracketleft" unicode="[" horiz-adv-x="288" 
d="M80 -118v872h175v-53h-111v-764h111v-55h-175z" />
    <glyph glyph-name="backslash" unicode="\" horiz-adv-x="381" 
d="M300 0l-284 715h65l284 -715h-65z" />
    <glyph glyph-name="bracketright" unicode="]" horiz-adv-x="288" 
d="M33 -118v55h111v764h-111v53h175v-872h-175z" />
    <glyph glyph-name="asciicircum" unicode="^" horiz-adv-x="410" 
d="M12 446l157 269h72l157 -269h-66l-126 220h-2l-127 -220h-65z" />
    <glyph glyph-name="underscore" unicode="_" horiz-adv-x="384" 
d="M-2 -166v49h388v-49h-388z" />
    <glyph glyph-name="grave" unicode="`" 
d="M237 592l-94 127h82l66 -127h-54z" />
    <glyph glyph-name="a" unicode="a" horiz-adv-x="499" 
d="M192 -12c-96 0 -169 48 -169 144c0 123 96 148 213 162c102 12 139 18 139 70v10c0 70 -44 104 -124 104c-92 0 -140 -38 -145 -115h-61c7 100 73 165 206 165c113 0 183 -47 183 -160v-281c0 -31 12 -44 34 -45c7 0 14 2 23 4h3v-45c-9 -4 -22 -8 -42 -8
c-45 0 -73 23 -76 73v11h-3c-29 -41 -82 -89 -181 -89zM203 38c113 0 173 78 173 149v93c-33 -18 -84 -27 -134 -34c-87 -12 -154 -25 -154 -114c0 -72 54 -94 115 -94z" />
    <glyph glyph-name="b" unicode="b" horiz-adv-x="530" 
d="M287 -14c-79 0 -131 31 -171 92h-2v-78h-62v715h62v-287h2c36 60 93 100 175 100c124 0 213 -99 213 -271c0 -159 -81 -271 -217 -271zM284 38c106 0 157 97 157 218c0 129 -55 220 -158 220c-114 0 -174 -97 -174 -220c0 -129 60 -218 175 -218z" />
    <glyph glyph-name="c" unicode="c" horiz-adv-x="491" 
d="M260 -13c-151 0 -235 117 -235 271s86 271 236 271c114 0 191 -62 208 -168h-62c-15 77 -66 116 -146 116c-119 0 -172 -99 -172 -219s54 -218 171 -218c88 0 143 55 153 138h59c-12 -117 -89 -191 -212 -191z" />
    <glyph glyph-name="d" unicode="d" horiz-adv-x="532" 
d="M248 -14c-139 0 -223 112 -223 271c0 172 98 271 221 271c79 0 137 -37 170 -97h2v284h62v-715h-62v77h-2c-38 -59 -90 -91 -168 -91zM250 38c113 0 173 89 173 218c0 127 -61 220 -173 220c-102 0 -161 -91 -161 -220c0 -121 52 -218 161 -218z" />
    <glyph glyph-name="e" unicode="e" horiz-adv-x="508" 
d="M266 -13c-155 0 -241 116 -241 271s93 271 236 271c166 0 223 -137 222 -282h-394c3 -116 59 -207 177 -207c86 0 131 46 151 116h60c-22 -102 -95 -169 -211 -169zM90 296h328c-3 102 -51 182 -157 182c-105 0 -160 -79 -171 -182z" />
    <glyph glyph-name="f" unicode="f" horiz-adv-x="269" 
d="M91 0v466h-75v51h75v92c0 77 42 111 121 111c7 0 31 -1 35 -1v-53h-27c-52 0 -68 -20 -68 -59v-90h96v-51h-96v-466h-61z" />
    <glyph glyph-name="g" unicode="g" horiz-adv-x="527" 
d="M254 -181c-127 0 -198 58 -207 135h60c11 -60 70 -84 145 -84c110 0 162 57 162 148v82h-3c-38 -58 -86 -90 -164 -90c-136 0 -222 106 -222 258c0 168 102 260 222 260c80 0 130 -35 164 -91h3v80h61v-497c0 -58 -17 -105 -48 -139c-39 -41 -96 -62 -173 -62zM250 62
c115 0 168 83 168 207c0 122 -54 207 -167 207c-102 0 -162 -83 -162 -209c0 -118 52 -205 161 -205z" />
    <glyph glyph-name="h" unicode="h" horiz-adv-x="505" 
d="M55 0v715h62v-277h2c35 52 91 90 173 90c96 0 165 -57 165 -161v-367h-62v361c0 78 -45 114 -118 114c-88 0 -160 -62 -160 -147v-328h-62z" />
    <glyph glyph-name="i" unicode="i" horiz-adv-x="169" 
d="M54 0v517h62v-517h-62zM54 627v88h62v-88h-62z" />
    <glyph glyph-name="j" unicode="j" horiz-adv-x="169" 
d="M-20 -157v52h1c4 -1 13 -1 17 -1c38 0 56 17 56 59v564h62v-567c0 -84 -43 -108 -110 -108c-8 0 -21 0 -26 1zM54 627v88h62v-88h-62z" />
    <glyph glyph-name="k" unicode="k" horiz-adv-x="476" 
d="M52 0v715h62v-447l257 249h79l-198 -187l222 -330h-72l-193 290l-95 -91v-199h-62z" />
    <glyph glyph-name="l" unicode="l" horiz-adv-x="172" 
d="M55 0v715h62v-715h-62z" />
    <glyph glyph-name="m" unicode="m" horiz-adv-x="784" 
d="M52 0v517h62v-78h2c33 52 83 89 157 89c63 0 117 -32 138 -94h2c34 59 93 94 166 94c88 0 156 -57 156 -161v-367h-61v362c0 77 -46 113 -109 113c-76 0 -140 -54 -140 -146v-329h-62v362c0 77 -44 113 -104 113c-74 0 -145 -62 -145 -146v-329h-62z" />
    <glyph glyph-name="n" unicode="n" horiz-adv-x="502" 
d="M52 0v517h62v-79h2c35 52 91 90 173 90c96 0 165 -57 165 -161v-367h-62v361c0 78 -45 114 -118 114c-88 0 -160 -62 -160 -147v-328h-62z" />
    <glyph glyph-name="o" unicode="o" horiz-adv-x="529" 
d="M265 39c115 0 175 98 175 219s-60 219 -175 219c-116 0 -176 -98 -176 -219s60 -219 176 -219zM265 -13c-149 0 -240 117 -240 271s91 271 240 271s238 -117 238 -271s-89 -271 -238 -271z" />
    <glyph glyph-name="p" unicode="p" horiz-adv-x="530" 
d="M52 -166v683h62v-89h2c36 61 93 100 175 100c124 0 214 -98 214 -270c0 -159 -82 -271 -218 -271c-79 0 -132 31 -171 88h-2v-241h-62zM284 39c106 0 158 98 158 218c0 129 -56 219 -159 219c-114 0 -174 -97 -174 -220c0 -127 57 -217 175 -217z" />
    <glyph glyph-name="q" unicode="q" horiz-adv-x="532" 
d="M418 -166v243h-2c-39 -58 -91 -90 -169 -90c-139 0 -220 111 -220 270c0 172 98 271 220 271c80 0 134 -36 169 -93h2v82h62v-683h-62zM250 39c114 0 173 88 173 217c0 127 -58 220 -172 220c-103 0 -161 -91 -161 -220c0 -121 50 -217 160 -217z" />
    <glyph glyph-name="r" unicode="r" horiz-adv-x="308" 
d="M52 0v517h62v-96h2c32 60 86 100 158 100c8 0 13 -1 17 -2v-61c-37 6 -78 -2 -110 -25c-40 -30 -67 -78 -67 -139v-294h-62z" />
    <glyph glyph-name="s" unicode="s" horiz-adv-x="451" 
d="M233 -14c-138 0 -208 75 -214 175h63c9 -87 69 -122 152 -122c86 0 131 40 131 100c0 57 -32 76 -138 100c-105 24 -189 49 -189 149c0 86 74 140 180 140c123 0 180 -62 192 -153h-62c-7 67 -53 102 -130 102c-80 0 -118 -38 -118 -86c0 -59 49 -73 148 -96
c104 -22 179 -48 179 -155c0 -92 -74 -154 -194 -154z" />
    <glyph glyph-name="t" unicode="t" horiz-adv-x="282" 
d="M194 -4c-59 0 -99 27 -99 93v377h-78v51h78v159h62v-159h96v-51h-96v-367c0 -37 17 -49 50 -49c14 0 32 4 41 8h3v-53c-17 -6 -35 -9 -57 -9z" />
    <glyph glyph-name="u" unicode="u" horiz-adv-x="495" 
d="M218 -12c-100 0 -170 60 -170 164v365h62v-361c0 -78 47 -116 122 -116c88 0 150 66 150 154v323h61v-517h-61v76h-2c-36 -50 -80 -88 -162 -88z" />
    <glyph glyph-name="v" unicode="v" horiz-adv-x="456" 
d="M189 0l-183 517h66l111 -328c17 -50 42 -131 42 -131h2s26 81 43 131l116 328h63l-187 -517h-73z" />
    <glyph glyph-name="w" unicode="w" horiz-adv-x="711" 
d="M164 0l-154 517h65l90 -320c14 -51 33 -135 33 -135h2s20 83 33 130l88 325h67l85 -325c12 -47 31 -130 31 -130h2s21 85 36 135l96 320h63l-163 -517h-68l-89 330c-13 49 -27 117 -27 117h-2s-14 -68 -27 -117l-91 -330h-70z" />
    <glyph glyph-name="x" unicode="x" horiz-adv-x="481" 
d="M8 0l194 273l-173 244h72l135 -199h2l135 199h70l-168 -239l198 -278h-73l-161 233h-2l-159 -233h-70z" />
    <glyph glyph-name="y" unicode="y" horiz-adv-x="469" 
d="M106 -171c-23 0 -37 3 -53 8v55h3c9 -3 23 -7 47 -7c39 0 67 17 86 70l17 46l-199 516h66l124 -334c18 -48 41 -118 41 -118h2s22 70 39 118l119 334h64l-213 -571c-35 -93 -76 -117 -143 -117z" />
    <glyph glyph-name="z" unicode="z" horiz-adv-x="447" 
d="M28 0v53l302 407v3h-282v54h365v-44l-308 -415v-3h317v-55h-394z" />
    <glyph glyph-name="braceleft" unicode="{" horiz-adv-x="288" 
d="M228 -118c-87 0 -135 40 -135 139v204c0 45 -16 68 -69 70v54c52 1 69 24 69 69v198c0 100 48 138 135 138h18v-53h-16c-52 0 -73 -21 -73 -86v-201c0 -52 -17 -80 -56 -91v-2c39 -12 56 -39 56 -91v-208c0 -65 21 -85 73 -85h16v-55h-18z" />
    <glyph glyph-name="bar" unicode="|" horiz-adv-x="210" 
d="M77 -118v872h56v-872h-56z" />
    <glyph glyph-name="braceright" unicode="}" horiz-adv-x="288" 
d="M42 -118v55h16c51 0 73 19 73 84v208c0 51 17 79 56 90v3c-39 11 -56 39 -56 90v202c0 65 -22 87 -73 87h-16v53h18c87 0 135 -40 135 -139v-198c0 -45 15 -68 69 -69v-55c-53 -1 -69 -24 -69 -69v-204c0 -100 -48 -138 -135 -138h-18z" />
    <glyph glyph-name="asciitilde" unicode="~" horiz-adv-x="385" 
d="M260 281c-25 0 -49 11 -71 23c-28 14 -46 26 -63 26c-20 0 -34 -17 -36 -48h-53c4 68 39 106 88 106c28 0 54 -14 77 -28c25 -14 37 -21 54 -21c21 0 37 16 38 47h53c-3 -65 -35 -105 -87 -105z" />
    <glyph glyph-name="uni00A0" unicode="&#xa0;" horiz-adv-x="150" 
 />
    <glyph glyph-name="exclamdown" unicode="&#xa1;" horiz-adv-x="212" 
d="M72 -127v229l15 313h39l14 -313v-229h-68zM68 501v87h76v-87h-76z" />
    <glyph glyph-name="cent" unicode="&#xa2;" horiz-adv-x="495" 
d="M236 -85v73c-135 13 -210 125 -210 270c0 144 75 256 210 269v64h46v-63c102 -7 172 -68 187 -167h-61c-14 70 -58 108 -126 114v-434c75 8 123 61 131 137h60c-12 -110 -80 -183 -191 -190v-73h-46zM236 41v434c-101 -13 -147 -106 -147 -217s46 -204 147 -217z" />
    <glyph glyph-name="sterling" unicode="&#xa3;" horiz-adv-x="535" 
d="M370 -11c-91 0 -116 50 -195 50c-40 0 -75 -23 -104 -43l-37 53c61 44 103 95 103 178c0 27 -7 55 -16 81h-83v51h66c-18 45 -35 92 -35 146c0 105 75 194 215 194c117 0 211 -74 213 -218h-62c-2 118 -73 164 -154 164c-94 0 -147 -56 -147 -141c0 -48 20 -95 37 -145
h160v-51h-144c5 -23 10 -47 10 -71c0 -72 -27 -124 -75 -164l1 -2c26 12 43 18 74 18c72 0 113 -43 176 -43c41 0 75 22 104 48l36 -45c-40 -36 -80 -60 -143 -60z" />
    <glyph glyph-name="currency" unicode="&#xa4;" horiz-adv-x="486" 
d="M52 112l-35 35l71 75c-24 35 -37 79 -37 128c0 47 13 91 37 125l-71 76l35 34l69 -73c31 25 73 41 122 41s90 -16 121 -41l70 73l35 -34l-71 -75c24 -35 36 -79 36 -126c0 -49 -13 -93 -37 -128l72 -75l-35 -35l-71 74c-31 -25 -71 -40 -120 -40s-90 15 -121 40zM243 196
c85 0 130 68 130 154c0 85 -45 154 -130 154s-131 -69 -131 -154c0 -86 46 -154 131 -154z" />
    <glyph glyph-name="yen" unicode="&#xa5;" horiz-adv-x="543" 
d="M240 0v161h-181v46h181v73h-181v46h169l-217 360h73l187 -326h2l190 326h69l-217 -360h169v-46h-181v-73h181v-46h-181v-161h-63z" />
    <glyph glyph-name="brokenbar" unicode="&#xa6;" horiz-adv-x="210" 
d="M77 -118v411h56v-411h-56zM77 359v395h56v-395h-56z" />
    <glyph glyph-name="section" unicode="&#xa7;" horiz-adv-x="562" 
d="M290 -184c-132 0 -207 88 -210 190h65c5 -82 56 -133 146 -133c71 0 107 32 107 86c0 57 -50 81 -163 147c-124 71 -207 121 -207 216c0 73 46 115 112 136c-24 26 -38 56 -38 93c0 88 69 149 177 149c117 0 184 -72 191 -175h-65c-5 76 -52 118 -128 118
c-74 0 -109 -39 -109 -89c0 -61 54 -89 155 -144c117 -62 211 -114 211 -216c0 -70 -42 -117 -113 -138c27 -28 43 -58 43 -96c0 -85 -64 -144 -174 -144zM382 89c66 18 88 61 88 103c0 67 -60 99 -175 162c-45 25 -84 46 -115 69c-58 -13 -88 -48 -88 -96
c0 -66 49 -95 169 -164c44 -25 86 -48 121 -74z" />
    <glyph glyph-name="dieresis" unicode="&#xa8;" horiz-adv-x="512" 
d="M148 627v86h60v-86h-60zM304 627v86h60v-86h-60z" />
    <glyph glyph-name="copyright" unicode="&#xa9;" horiz-adv-x="812" 
d="M408 124c-123 0 -206 96 -206 231s78 235 208 235c100 0 163 -59 177 -142h-61c-10 54 -51 90 -116 90c-97 0 -146 -80 -146 -183c0 -104 53 -180 144 -180c75 0 118 49 125 114h59c-2 -42 -19 -84 -48 -113c-31 -32 -76 -52 -136 -52zM406 18c185 0 322 143 322 337
s-137 338 -322 338s-322 -144 -322 -338s137 -337 322 -337zM406 -17c-205 0 -365 158 -365 372s160 373 365 373s365 -159 365 -373s-160 -372 -365 -372z" />
    <glyph glyph-name="ordfeminine" unicode="&#xaa;" horiz-adv-x="470" 
d="M191 228c-84 0 -153 45 -153 129c0 106 85 129 190 140c87 8 117 16 117 61v7c0 58 -36 88 -103 88c-76 0 -116 -35 -123 -99h-58c8 86 68 146 180 146c98 0 162 -42 162 -142v-236c0 -29 10 -42 32 -42c6 0 14 2 21 4h3v-44c-8 -3 -21 -7 -40 -7c-46 0 -70 23 -73 68v4
h-2c-27 -37 -68 -77 -153 -77zM201 276c98 0 145 67 145 127v76c-27 -14 -72 -23 -114 -28c-79 -9 -131 -21 -131 -94c0 -61 48 -81 100 -81z" />
    <glyph glyph-name="guillemotleft" unicode="&#xab;" horiz-adv-x="411" 
d="M185 121l-129 113v75l129 113v-69l-93 -81v-2l93 -80v-69zM355 121l-129 113v75l129 113v-69l-93 -81v-2l93 -80v-69z" />
    <glyph glyph-name="logicalnot" unicode="&#xac;" horiz-adv-x="530" 
d="M395 139v190h-336v53h392v-243h-56z" />
    <glyph glyph-name="uni00AD" unicode="&#xad;" horiz-adv-x="326" 
d="M35 252v56h256v-56h-256z" />
    <glyph glyph-name="registered" unicode="&#xae;" horiz-adv-x="528" 
d="M171 360v259h118c48 0 80 -29 80 -72c0 -30 -15 -53 -48 -62v-1c26 -7 38 -23 40 -56c4 -38 4 -62 11 -66v-2h-43c-7 3 -9 28 -11 59c-1 32 -17 49 -51 49h-52v-108h-44zM215 502h64c31 0 46 16 46 40s-14 41 -45 41h-65v-81zM264 276c116 0 199 88 199 210
c0 121 -83 210 -199 210s-199 -89 -199 -210c0 -122 83 -210 199 -210zM264 244c-132 0 -237 102 -237 242c0 139 105 242 237 242s237 -103 237 -242c0 -140 -105 -242 -237 -242z" />
    <glyph glyph-name="macron" unicode="&#xaf;" 
d="M126 627v56h248v-56h-248z" />
    <glyph glyph-name="degree" unicode="&#xb0;" horiz-adv-x="318" 
d="M159 500c44 0 72 33 72 79c0 45 -28 79 -72 79c-43 0 -72 -34 -72 -79c0 -46 29 -79 72 -79zM159 459c-67 0 -121 53 -121 120s54 121 121 121c68 0 121 -54 121 -121s-53 -120 -121 -120z" />
    <glyph glyph-name="plusminus" unicode="&#xb1;" horiz-adv-x="530" 
d="M237 133v180h-182v54h182v178h56v-178h182v-54h-182v-180h-56zM55 0v53h420v-53h-420z" />
    <glyph glyph-name="twosuperior" unicode="&#xb2;" horiz-adv-x="339" 
d="M28 312c3 94 66 137 124 175c54 35 99 56 99 113c0 48 -30 76 -75 76c-51 0 -83 -33 -84 -96h-54c0 94 57 143 140 143c79 0 131 -54 131 -122c0 -78 -59 -109 -115 -144c-40 -24 -89 -54 -99 -98h212v-47h-279z" />
    <glyph glyph-name="threesuperior" unicode="&#xb3;" horiz-adv-x="351" 
d="M177 303c-90 0 -152 53 -151 138h54c3 -58 36 -91 95 -91c55 0 88 28 88 78c0 48 -33 75 -90 75h-27v44h26c49 0 78 25 78 66c0 42 -31 67 -74 67c-54 0 -82 -36 -84 -87h-53c1 77 52 130 138 130c74 0 128 -41 128 -108c0 -45 -26 -73 -63 -86v-2c52 -14 79 -49 79 -103
c0 -78 -63 -121 -144 -121z" />
    <glyph glyph-name="acute" unicode="&#xb4;" 
d="M209 592l66 127h82l-94 -127h-54z" />
    <glyph glyph-name="mu" unicode="&#xb5;" horiz-adv-x="499" 
d="M52 -166v683h62v-361c0 -78 46 -116 122 -116c87 0 149 66 149 154v323h62v-517h-62v76h-2c-35 -50 -79 -88 -160 -88c-45 0 -82 13 -107 46h-2v-200h-62z" />
    <glyph glyph-name="paragraph" unicode="&#xb6;" horiz-adv-x="511" 
d="M254 0v370h-33c-127 0 -192 66 -192 175c0 50 18 92 49 123c30 32 76 47 136 47h233v-715h-61v654h-72v-654h-60z" />
    <glyph glyph-name="periodcentered" unicode="&#xb7;" horiz-adv-x="160" 
d="M43 268v87h76v-87h-76z" />
    <glyph glyph-name="cedilla" unicode="&#xb8;" 
d="M223 -187c-43 0 -74 11 -97 25l15 27c21 -9 44 -14 69 -14c35 0 57 13 57 35c0 21 -16 28 -41 28c-17 0 -29 -3 -40 -7l-14 23l71 70h51l-57 -50v-2c42 4 85 -16 85 -62c0 -47 -41 -73 -99 -73z" />
    <glyph glyph-name="onesuperior" unicode="&#xb9;" horiz-adv-x="256" 
d="M121 312v292h-92v39c58 1 94 20 102 75h47v-406h-57z" />
    <glyph glyph-name="ordmasculine" unicode="&#xba;" horiz-adv-x="479" 
d="M240 276c98 0 148 82 148 187s-50 189 -148 189s-149 -84 -149 -189s51 -187 149 -187zM240 226c-132 0 -211 103 -211 237s79 237 211 237c131 0 210 -103 210 -237s-79 -237 -210 -237z" />
    <glyph glyph-name="guillemotright" unicode="&#xbb;" horiz-adv-x="411" 
d="M56 121v69l93 81v2l-93 80v69l129 -113v-75zM226 121v69l93 81v2l-93 80v69l129 -113v-75z" />
    <glyph glyph-name="onequarter" unicode="&#xbc;" horiz-adv-x="734" 
d="M589 0v97h-193v55l194 256h53v-267h62v-44h-62v-97h-54zM444 141h145v189h-2l-143 -187v-2zM125 312v292h-92v39c58 1 94 20 102 75h47v-406h-57zM77 0l489 715h60l-488 -715h-61z" />
    <glyph glyph-name="onehalf" unicode="&#xbd;" horiz-adv-x="767" 
d="M451 0c3 94 66 138 124 176c54 34 99 56 99 112c0 49 -30 76 -75 76c-51 0 -83 -32 -84 -95h-54c0 93 57 142 140 142c79 0 131 -54 131 -122c0 -78 -59 -109 -115 -144c-40 -24 -89 -53 -99 -98h212v-47h-279zM125 312v292h-92v39c58 1 94 20 102 75h47v-406h-57zM67 0
l489 715h60l-488 -715h-61z" />
    <glyph glyph-name="threequarters" unicode="&#xbe;" horiz-adv-x="800" 
d="M181 303c-90 0 -152 53 -151 138h54c3 -58 36 -91 95 -91c55 0 88 28 88 78c0 48 -33 75 -90 75h-27v44h26c49 0 78 25 78 66c0 42 -31 67 -74 67c-54 0 -82 -36 -84 -87h-53c1 77 52 130 138 130c74 0 128 -41 128 -108c0 -45 -26 -73 -63 -86v-2c52 -14 79 -49 79 -103
c0 -78 -63 -121 -144 -121zM655 0v97h-193v55l194 256h53v-267h62v-44h-62v-97h-54zM510 141h145v189h-2l-143 -187v-2zM151 0l489 715h60l-488 -715h-61z" />
    <glyph glyph-name="questiondown" unicode="&#xbf;" horiz-adv-x="497" 
d="M243 -140c-126 0 -202 80 -202 183c0 98 54 141 104 183c73 61 93 89 94 189h60c-1 -114 -28 -159 -103 -222c-45 -38 -89 -73 -89 -149s54 -128 139 -128c103 0 158 71 161 168h63c-2 -116 -69 -224 -227 -224zM231 501v87h76v-87h-76z" />
    <glyph glyph-name="Agrave" unicode="&#xc0;" horiz-adv-x="634" 
d="M8 0l270 715h76l272 -715h-72l-83 225h-311l-84 -225h-68zM180 280h271l-98 267c-15 40 -36 104 -36 104h-2s-19 -61 -35 -104zM299 753l-94 114h82l66 -114h-54z" />
    <glyph glyph-name="Aacute" unicode="&#xc1;" horiz-adv-x="634" 
d="M8 0l270 715h76l272 -715h-72l-83 225h-311l-84 -225h-68zM180 280h271l-98 267c-15 40 -36 104 -36 104h-2s-19 -61 -35 -104zM283 753l66 114h82l-94 -114h-54z" />
    <glyph glyph-name="Acircumflex" unicode="&#xc2;" horiz-adv-x="634" 
d="M8 0l270 715h76l272 -715h-72l-83 225h-311l-84 -225h-68zM180 280h271l-98 267c-15 40 -36 104 -36 104h-2s-19 -61 -35 -104zM187 754l94 103h74l92 -103h-70l-60 68h-2l-60 -68h-68z" />
    <glyph glyph-name="Atilde" unicode="&#xc3;" horiz-adv-x="634" 
d="M8 0l270 715h76l272 -715h-72l-83 225h-311l-84 -225h-68zM180 280h271l-98 267c-15 40 -36 104 -36 104h-2s-19 -61 -35 -104zM378 760c-44 0 -90 39 -118 39c-14 0 -26 -14 -28 -37h-49c5 57 32 87 74 87c47 0 84 -38 116 -38c18 0 29 14 31 36h48
c-3 -53 -30 -87 -74 -87z" />
    <glyph glyph-name="Adieresis" unicode="&#xc4;" horiz-adv-x="634" 
d="M8 0l270 715h76l272 -715h-72l-83 225h-311l-84 -225h-68zM180 280h271l-98 267c-15 40 -36 104 -36 104h-2s-19 -61 -35 -104zM209 757v86h60v-86h-60zM365 757v86h60v-86h-60z" />
    <glyph glyph-name="Aring" unicode="&#xc5;" horiz-adv-x="634" 
d="M8 0l270 715h76l272 -715h-72l-83 225h-311l-84 -225h-68zM180 280h271l-98 267c-15 40 -36 104 -36 104h-2s-19 -61 -35 -104zM317 777c29 0 48 23 48 52c0 28 -19 51 -48 51s-48 -23 -48 -51c0 -29 19 -52 48 -52zM317 744c-48 0 -87 38 -87 85s39 85 87 85
s87 -38 87 -85s-39 -85 -87 -85z" />
    <glyph glyph-name="AE" unicode="&#xc6;" horiz-adv-x="945" 
d="M11 0l282 715h605v-59h-378v-257h342v-58h-342v-279h389v-62h-456v225h-286l-88 -225h-68zM188 280h265v376h-117z" />
    <glyph glyph-name="Ccedilla" unicode="&#xc7;" horiz-adv-x="677" 
d="M328 -187c-43 0 -74 11 -97 25l15 27c21 -9 44 -14 69 -14c35 0 57 13 57 35c0 21 -16 28 -41 28c-17 0 -29 -3 -40 -7l-14 23l58 58c-186 11 -299 158 -299 369c0 216 123 373 325 373c151 0 251 -84 275 -217h-66c-19 93 -93 159 -210 159c-168 0 -254 -139 -254 -315
c0 -179 89 -311 253 -311c138 0 213 96 224 214h65c-4 -70 -31 -140 -74 -187c-45 -51 -110 -79 -189 -85l-43 -38v-2c42 4 85 -16 85 -62c0 -47 -41 -73 -99 -73z" />
    <glyph glyph-name="Egrave" unicode="&#xc8;" horiz-adv-x="598" 
d="M301 753l-94 114h82l66 -114h-54zM64 0v715h486v-59h-419v-257h384v-58h-384v-279h430v-62h-497z" />
    <glyph glyph-name="Eacute" unicode="&#xc9;" horiz-adv-x="598" 
d="M284 753l66 114h82l-94 -114h-54zM64 0v715h486v-59h-419v-257h384v-58h-384v-279h430v-62h-497z" />
    <glyph glyph-name="Ecircumflex" unicode="&#xca;" horiz-adv-x="598" 
d="M64 0v715h486v-59h-419v-257h384v-58h-384v-279h430v-62h-497zM189 754l94 103h74l92 -103h-70l-60 68h-2l-60 -68h-68z" />
    <glyph glyph-name="Edieresis" unicode="&#xcb;" horiz-adv-x="598" 
d="M211 757v86h60v-86h-60zM367 757v86h60v-86h-60zM64 0v715h486v-59h-419v-257h384v-58h-384v-279h430v-62h-497z" />
    <glyph glyph-name="Igrave" unicode="&#xcc;" horiz-adv-x="202" 
d="M67 0v715h67v-715h-67zM79 753l-94 114h82l66 -114h-54z" />
    <glyph glyph-name="Iacute" unicode="&#xcd;" horiz-adv-x="202" 
d="M67 0v715h67v-715h-67zM72 753l66 114h82l-94 -114h-54z" />
    <glyph glyph-name="Icircumflex" unicode="&#xce;" horiz-adv-x="202" 
d="M67 0v715h67v-715h-67zM-29 754l94 103h74l92 -103h-70l-60 68h-2l-60 -68h-68z" />
    <glyph glyph-name="Idieresis" unicode="&#xcf;" horiz-adv-x="202" 
d="M67 0v715h67v-715h-67zM-7 757v86h60v-86h-60zM149 757v86h60v-86h-60z" />
    <glyph glyph-name="Eth" unicode="&#xd0;" horiz-adv-x="674" 
d="M142 59h177c171 0 246 115 246 296s-68 301 -239 301h-184v-269h237v-57h-237v-271zM74 0v330h-71v57h71v328h254c211 0 306 -148 306 -360s-102 -355 -313 -355h-247z" />
    <glyph glyph-name="Ntilde" unicode="&#xd1;" horiz-adv-x="667" 
d="M411 760c-44 0 -90 39 -118 39c-14 0 -26 -14 -28 -37h-49c5 57 32 87 74 87c47 0 84 -38 116 -38c18 0 29 14 31 36h48c-3 -53 -30 -87 -74 -87zM64 0v715h73l329 -502c36 -54 71 -118 71 -118h2v620h64v-715h-70l-328 496c-33 50 -75 121 -75 121h-2v-617h-64z" />
    <glyph glyph-name="Ograve" unicode="&#xd2;" horiz-adv-x="738" 
d="M353 753l-94 114h82l66 -114h-54zM368 46c172 0 264 139 264 312s-92 312 -264 312c-171 0 -262 -139 -262 -312s91 -312 262 -312zM368 -14c-202 0 -332 159 -332 372s130 372 332 372c203 0 334 -159 334 -372s-131 -372 -334 -372z" />
    <glyph glyph-name="Oacute" unicode="&#xd3;" horiz-adv-x="738" 
d="M332 753l66 114h82l-94 -114h-54zM368 46c172 0 264 139 264 312s-92 312 -264 312c-171 0 -262 -139 -262 -312s91 -312 262 -312zM368 -14c-202 0 -332 159 -332 372s130 372 332 372c203 0 334 -159 334 -372s-131 -372 -334 -372z" />
    <glyph glyph-name="Ocircumflex" unicode="&#xd4;" horiz-adv-x="738" 
d="M368 46c172 0 264 139 264 312s-92 312 -264 312c-171 0 -262 -139 -262 -312s91 -312 262 -312zM368 -14c-202 0 -332 159 -332 372s130 372 332 372c203 0 334 -159 334 -372s-131 -372 -334 -372zM239 754l94 103h74l92 -103h-70l-60 68h-2l-60 -68h-68z" />
    <glyph glyph-name="Otilde" unicode="&#xd5;" horiz-adv-x="738" 
d="M430 760c-44 0 -90 39 -118 39c-14 0 -26 -14 -28 -37h-49c5 57 32 87 74 87c47 0 84 -38 116 -38c18 0 29 14 31 36h48c-3 -53 -30 -87 -74 -87zM368 46c172 0 264 139 264 312s-92 312 -264 312c-171 0 -262 -139 -262 -312s91 -312 262 -312zM368 -14
c-202 0 -332 159 -332 372s130 372 332 372c203 0 334 -159 334 -372s-131 -372 -334 -372z" />
    <glyph glyph-name="Odieresis" unicode="&#xd6;" horiz-adv-x="738" 
d="M261 757v86h60v-86h-60zM417 757v86h60v-86h-60zM368 46c172 0 264 139 264 312s-92 312 -264 312c-171 0 -262 -139 -262 -312s91 -312 262 -312zM368 -14c-202 0 -332 159 -332 372s130 372 332 372c203 0 334 -159 334 -372s-131 -372 -334 -372z" />
    <glyph glyph-name="multiply" unicode="&#xd7;" horiz-adv-x="528" 
d="M113 133l-37 37l152 155l-152 155l37 36l151 -154l151 154l37 -36l-151 -155l151 -155l-37 -37l-151 154z" />
    <glyph glyph-name="Oslash" unicode="&#xd8;" horiz-adv-x="738" 
d="M61 -16l-33 30l85 94c-49 65 -77 152 -77 250c0 213 130 372 332 372c93 0 170 -34 228 -91l81 90l33 -30l-84 -93c48 -65 76 -151 76 -248c0 -213 -131 -372 -334 -372c-92 0 -169 33 -225 88zM158 157l395 435c-44 49 -106 78 -185 78c-171 0 -262 -139 -262 -312
c0 -77 17 -147 52 -201zM368 46c172 0 264 139 264 312c0 75 -17 145 -52 199l-395 -436c45 -46 105 -75 183 -75z" />
    <glyph glyph-name="Ugrave" unicode="&#xd9;" horiz-adv-x="636" 
d="M300 753l-94 114h82l66 -114h-54zM316 -11c-156 0 -260 74 -260 238v488h67v-482c0 -132 71 -186 196 -186c119 0 195 54 195 186v482h67v-488c0 -166 -110 -238 -265 -238z" />
    <glyph glyph-name="Uacute" unicode="&#xda;" horiz-adv-x="636" 
d="M283 753l66 114h82l-94 -114h-54zM316 -11c-156 0 -260 74 -260 238v488h67v-482c0 -132 71 -186 196 -186c119 0 195 54 195 186v482h67v-488c0 -166 -110 -238 -265 -238z" />
    <glyph glyph-name="Ucircumflex" unicode="&#xdb;" horiz-adv-x="636" 
d="M316 -11c-156 0 -260 74 -260 238v488h67v-482c0 -132 71 -186 196 -186c119 0 195 54 195 186v482h67v-488c0 -166 -110 -238 -265 -238zM188 754l94 103h74l92 -103h-70l-60 68h-2l-60 -68h-68z" />
    <glyph glyph-name="Udieresis" unicode="&#xdc;" horiz-adv-x="636" 
d="M210 757v86h60v-86h-60zM366 757v86h60v-86h-60zM316 -11c-156 0 -260 74 -260 238v488h67v-482c0 -132 71 -186 196 -186c119 0 195 54 195 186v482h67v-488c0 -166 -110 -238 -265 -238z" />
    <glyph glyph-name="Yacute" unicode="&#xdd;" horiz-adv-x="600" 
d="M265 0v312l-258 403h74l218 -346h2l220 346h72l-260 -405v-310h-68zM265 753l66 114h82l-94 -114h-54z" />
    <glyph glyph-name="Thorn" unicode="&#xde;" horiz-adv-x="587" 
d="M64 0v715h67v-134h214c78 0 130 -22 168 -61c32 -34 50 -80 50 -138c0 -133 -77 -204 -227 -204h-205v-178h-67zM131 235h200c116 0 164 55 164 145c0 91 -55 142 -158 142h-206v-287z" />
    <glyph glyph-name="germandbls" unicode="&#xdf;" horiz-adv-x="483" 
d="M245 -7c-12 0 -39 2 -55 6v51h2c17 -3 35 -5 51 -5c91 2 150 59 150 161s-55 168 -159 168h-37v49h40c79 0 123 56 123 129c0 71 -45 120 -121 120c-78 0 -125 -50 -125 -131v-541h-62v544c0 109 73 179 188 179c107 0 182 -72 182 -169c0 -73 -35 -125 -102 -149v-2
c81 -25 137 -89 137 -194c0 -139 -85 -216 -212 -216z" />
    <glyph glyph-name="agrave" unicode="&#xe0;" horiz-adv-x="499" 
d="M192 -12c-96 0 -169 48 -169 144c0 123 96 148 213 162c102 12 139 18 139 70v10c0 70 -44 104 -124 104c-92 0 -140 -38 -145 -115h-61c7 100 73 165 206 165c113 0 183 -47 183 -160v-281c0 -31 12 -44 34 -45c7 0 14 2 23 4h3v-45c-9 -4 -22 -8 -42 -8
c-45 0 -73 23 -76 73v11h-3c-29 -41 -82 -89 -181 -89zM203 38c113 0 173 78 173 149v93c-33 -18 -84 -27 -134 -34c-87 -12 -154 -25 -154 -114c0 -72 54 -94 115 -94zM238 592l-94 127h82l66 -127h-54z" />
    <glyph glyph-name="aacute" unicode="&#xe1;" horiz-adv-x="499" 
d="M192 -12c-96 0 -169 48 -169 144c0 123 96 148 213 162c102 12 139 18 139 70v10c0 70 -44 104 -124 104c-92 0 -140 -38 -145 -115h-61c7 100 73 165 206 165c113 0 183 -47 183 -160v-281c0 -31 12 -44 34 -45c7 0 14 2 23 4h3v-45c-9 -4 -22 -8 -42 -8
c-45 0 -73 23 -76 73v11h-3c-29 -41 -82 -89 -181 -89zM203 38c113 0 173 78 173 149v93c-33 -18 -84 -27 -134 -34c-87 -12 -154 -25 -154 -114c0 -72 54 -94 115 -94zM215 592l66 127h82l-94 -127h-54z" />
    <glyph glyph-name="acircumflex" unicode="&#xe2;" horiz-adv-x="499" 
d="M192 -12c-96 0 -169 48 -169 144c0 123 96 148 213 162c102 12 139 18 139 70v10c0 70 -44 104 -124 104c-92 0 -140 -38 -145 -115h-61c7 100 73 165 206 165c113 0 183 -47 183 -160v-281c0 -31 12 -44 34 -45c7 0 14 2 23 4h3v-45c-9 -4 -22 -8 -42 -8
c-45 0 -73 23 -76 73v11h-3c-29 -41 -82 -89 -181 -89zM203 38c113 0 173 78 173 149v93c-33 -18 -84 -27 -134 -34c-87 -12 -154 -25 -154 -114c0 -72 54 -94 115 -94zM131 596l85 106h74l83 -106h-69l-52 71h-2l-53 -71h-66z" />
    <glyph glyph-name="atilde" unicode="&#xe3;" horiz-adv-x="499" 
d="M192 -12c-96 0 -169 48 -169 144c0 123 96 148 213 162c102 12 139 18 139 70v10c0 70 -44 104 -124 104c-92 0 -140 -38 -145 -115h-61c7 100 73 165 206 165c113 0 183 -47 183 -160v-281c0 -31 12 -44 34 -45c7 0 14 2 23 4h3v-45c-9 -4 -22 -8 -42 -8
c-45 0 -73 23 -76 73v11h-3c-29 -41 -82 -89 -181 -89zM203 38c113 0 173 78 173 149v93c-33 -18 -84 -27 -134 -34c-87 -12 -154 -25 -154 -114c0 -72 54 -94 115 -94zM313 600c-44 0 -90 39 -118 39c-14 0 -26 -14 -28 -37h-49c5 57 32 88 74 88c47 0 84 -39 116 -39
c18 0 29 15 31 37h48c-3 -54 -30 -88 -74 -88z" />
    <glyph glyph-name="adieresis" unicode="&#xe4;" horiz-adv-x="499" 
d="M192 -12c-96 0 -169 48 -169 144c0 123 96 148 213 162c102 12 139 18 139 70v10c0 70 -44 104 -124 104c-92 0 -140 -38 -145 -115h-61c7 100 73 165 206 165c113 0 183 -47 183 -160v-281c0 -31 12 -44 34 -45c7 0 14 2 23 4h3v-45c-9 -4 -22 -8 -42 -8
c-45 0 -73 23 -76 73v11h-3c-29 -41 -82 -89 -181 -89zM203 38c113 0 173 78 173 149v93c-33 -18 -84 -27 -134 -34c-87 -12 -154 -25 -154 -114c0 -72 54 -94 115 -94zM145 627v86h60v-86h-60zM301 627v86h60v-86h-60z" />
    <glyph glyph-name="aring" unicode="&#xe5;" horiz-adv-x="499" 
d="M192 -12c-96 0 -169 48 -169 144c0 123 96 148 213 162c102 12 139 18 139 70v10c0 70 -44 104 -124 104c-92 0 -140 -38 -145 -115h-61c7 100 73 165 206 165c113 0 183 -47 183 -160v-281c0 -31 12 -44 34 -45c7 0 14 2 23 4h3v-45c-9 -4 -22 -8 -42 -8
c-45 0 -73 23 -76 73v11h-3c-29 -41 -82 -89 -181 -89zM203 38c113 0 173 78 173 149v93c-33 -18 -84 -27 -134 -34c-87 -12 -154 -25 -154 -114c0 -72 54 -94 115 -94zM253 603c29 0 48 23 48 51c0 29 -19 51 -48 51s-48 -22 -48 -51c0 -28 19 -51 48 -51zM253 569
c-48 0 -87 38 -87 85s39 85 87 85s87 -38 87 -85s-39 -85 -87 -85z" />
    <glyph glyph-name="ae" unicode="&#xe6;" horiz-adv-x="842" 
d="M201 -12c-100 0 -178 50 -178 147c0 122 97 146 214 158c104 11 138 19 138 71v8c0 70 -43 106 -122 106c-88 0 -135 -39 -143 -115h-61c10 99 77 165 204 165c88 0 147 -32 168 -100c36 62 97 101 180 101c53 0 97 -16 131 -45c61 -51 86 -133 85 -237h-382
c3 -116 55 -207 173 -207c82 0 125 48 143 116h60c-20 -101 -92 -169 -203 -169c-95 0 -161 44 -198 115h-2c-47 -82 -112 -114 -207 -114zM210 38c109 0 166 78 166 149v90c-33 -17 -85 -26 -135 -32c-90 -10 -153 -22 -153 -111c0 -71 57 -96 122 -96zM437 296h315
c-2 102 -50 182 -151 182c-103 0 -154 -79 -164 -182z" />
    <glyph glyph-name="ccedilla" unicode="&#xe7;" horiz-adv-x="491" 
d="M227 -187c-43 0 -74 11 -97 25l15 27c21 -9 44 -14 69 -14c35 0 57 13 57 35c0 21 -16 28 -41 28c-17 0 -29 -3 -40 -7l-14 23l59 59c-135 12 -210 124 -210 269c0 154 86 271 236 271c114 0 191 -62 208 -168h-62c-15 77 -66 116 -146 116c-119 0 -172 -99 -172 -219
s54 -218 171 -218c88 0 143 55 153 138h59c-11 -109 -79 -181 -188 -190l-43 -38v-2c42 4 85 -16 85 -62c0 -47 -41 -73 -99 -73z" />
    <glyph glyph-name="egrave" unicode="&#xe8;" horiz-adv-x="508" 
d="M266 -13c-155 0 -241 116 -241 271s93 271 236 271c166 0 223 -137 222 -282h-394c3 -116 59 -207 177 -207c86 0 131 46 151 116h60c-22 -102 -95 -169 -211 -169zM90 296h328c-3 102 -51 182 -157 182c-105 0 -160 -79 -171 -182zM245 592l-94 127h82l66 -127h-54z" />
    <glyph glyph-name="eacute" unicode="&#xe9;" horiz-adv-x="508" 
d="M222 592l66 127h82l-94 -127h-54zM266 -13c-155 0 -241 116 -241 271s93 271 236 271c166 0 223 -137 222 -282h-394c3 -116 59 -207 177 -207c86 0 131 46 151 116h60c-22 -102 -95 -169 -211 -169zM90 296h328c-3 102 -51 182 -157 182c-105 0 -160 -79 -171 -182z" />
    <glyph glyph-name="ecircumflex" unicode="&#xea;" horiz-adv-x="508" 
d="M138 596l85 106h74l83 -106h-69l-52 71h-2l-53 -71h-66zM266 -13c-155 0 -241 116 -241 271s93 271 236 271c166 0 223 -137 222 -282h-394c3 -116 59 -207 177 -207c86 0 131 46 151 116h60c-22 -102 -95 -169 -211 -169zM90 296h328c-3 102 -51 182 -157 182
c-105 0 -160 -79 -171 -182z" />
    <glyph glyph-name="edieresis" unicode="&#xeb;" horiz-adv-x="508" 
d="M151 627v86h60v-86h-60zM307 627v86h60v-86h-60zM266 -13c-155 0 -241 116 -241 271s93 271 236 271c166 0 223 -137 222 -282h-394c3 -116 59 -207 177 -207c86 0 131 46 151 116h60c-22 -102 -95 -169 -211 -169zM90 296h328c-3 102 -51 182 -157 182
c-105 0 -160 -79 -171 -182z" />
    <glyph glyph-name="igrave" unicode="&#xec;" horiz-adv-x="169" 
d="M54 0v517h62v-517h-62zM62 592l-94 127h82l66 -127h-54z" />
    <glyph glyph-name="iacute" unicode="&#xed;" horiz-adv-x="169" 
d="M54 0v517h62v-517h-62zM59 592l54 127h78l-79 -127h-53z" />
    <glyph glyph-name="icircumflex" unicode="&#xee;" horiz-adv-x="169" 
d="M-22 596l70 106h74l68 -106h-64l-41 69h-2l-43 -69h-62zM54 0v517h62v-517h-62z" />
    <glyph glyph-name="idieresis" unicode="&#xef;" horiz-adv-x="169" 
d="M-4 627v86h61v-86h-61zM54 0v517h62v-517h-62zM112 627v86h61v-86h-61z" />
    <glyph glyph-name="eth" unicode="&#xf0;" horiz-adv-x="529" 
d="M170 562l-14 36l123 45c-27 25 -57 49 -87 72h79c20 -14 43 -31 65 -51l100 36l14 -36l-83 -30c71 -76 136 -192 136 -364c0 -167 -89 -283 -238 -283s-240 117 -240 271s91 269 234 269c63 0 117 -28 155 -75h1c-25 62 -62 115 -106 161zM265 39c115 0 175 99 175 220
c0 124 -61 217 -177 217c-115 0 -174 -97 -174 -218s60 -219 176 -219z" />
    <glyph glyph-name="ntilde" unicode="&#xf1;" horiz-adv-x="502" 
d="M52 0v517h62v-79h2c35 52 91 90 173 90c96 0 165 -57 165 -161v-367h-62v361c0 78 -45 114 -118 114c-88 0 -160 -62 -160 -147v-328h-62zM315 600c-44 0 -90 39 -118 39c-14 0 -26 -14 -28 -37h-49c5 57 32 88 74 88c47 0 84 -39 116 -39c18 0 29 15 31 37h48
c-3 -54 -30 -88 -74 -88z" />
    <glyph glyph-name="ograve" unicode="&#xf2;" horiz-adv-x="529" 
d="M265 39c115 0 175 98 175 219s-60 219 -175 219c-116 0 -176 -98 -176 -219s60 -219 176 -219zM265 -13c-149 0 -240 117 -240 271s91 271 240 271s238 -117 238 -271s-89 -271 -238 -271zM249 592l-94 127h82l66 -127h-54z" />
    <glyph glyph-name="oacute" unicode="&#xf3;" horiz-adv-x="529" 
d="M227 592l66 127h82l-94 -127h-54zM265 39c115 0 175 98 175 219s-60 219 -175 219c-116 0 -176 -98 -176 -219s60 -219 176 -219zM265 -13c-149 0 -240 117 -240 271s91 271 240 271s238 -117 238 -271s-89 -271 -238 -271z" />
    <glyph glyph-name="ocircumflex" unicode="&#xf4;" horiz-adv-x="529" 
d="M143 596l85 106h74l83 -106h-69l-52 71h-2l-53 -71h-66zM265 39c115 0 175 98 175 219s-60 219 -175 219c-116 0 -176 -98 -176 -219s60 -219 176 -219zM265 -13c-149 0 -240 117 -240 271s91 271 240 271s238 -117 238 -271s-89 -271 -238 -271z" />
    <glyph glyph-name="otilde" unicode="&#xf5;" horiz-adv-x="529" 
d="M265 39c115 0 175 98 175 219s-60 219 -175 219c-116 0 -176 -98 -176 -219s60 -219 176 -219zM265 -13c-149 0 -240 117 -240 271s91 271 240 271s238 -117 238 -271s-89 -271 -238 -271zM325 600c-44 0 -90 39 -118 39c-14 0 -26 -14 -28 -37h-49c5 57 32 88 74 88
c47 0 84 -39 116 -39c18 0 29 15 31 37h48c-3 -54 -30 -88 -74 -88z" />
    <glyph glyph-name="odieresis" unicode="&#xf6;" horiz-adv-x="529" 
d="M156 627v86h60v-86h-60zM312 627v86h60v-86h-60zM265 39c115 0 175 98 175 219s-60 219 -175 219c-116 0 -176 -98 -176 -219s60 -219 176 -219zM265 -13c-149 0 -240 117 -240 271s91 271 240 271s238 -117 238 -271s-89 -271 -238 -271z" />
    <glyph glyph-name="divide" unicode="&#xf7;" horiz-adv-x="530" 
d="M227 116v84h76v-84h-76zM55 299v54h420v-54h-420zM227 452v84h76v-84h-76z" />
    <glyph glyph-name="oslash" unicode="&#xf8;" horiz-adv-x="529" 
d="M45 -15l-27 25l60 68c-34 47 -53 110 -53 180c0 154 91 271 240 271c66 0 121 -24 161 -63l57 64l28 -25l-61 -68c35 -47 53 -109 53 -179c0 -154 -89 -271 -238 -271c-67 0 -122 23 -162 63zM120 124l267 299c-29 34 -70 54 -122 54c-116 0 -176 -98 -176 -219
c0 -51 10 -97 31 -134zM265 39c115 0 175 98 175 219c0 50 -10 97 -31 134l-268 -299c30 -34 71 -54 124 -54z" />
    <glyph glyph-name="ugrave" unicode="&#xf9;" horiz-adv-x="495" 
d="M218 -12c-100 0 -170 60 -170 164v365h62v-361c0 -78 47 -116 122 -116c88 0 150 66 150 154v323h61v-517h-61v76h-2c-36 -50 -80 -88 -162 -88zM235 592l-94 127h82l66 -127h-54z" />
    <glyph glyph-name="uacute" unicode="&#xfa;" horiz-adv-x="495" 
d="M211 592l66 127h82l-94 -127h-54zM218 -12c-100 0 -170 60 -170 164v365h62v-361c0 -78 47 -116 122 -116c88 0 150 66 150 154v323h61v-517h-61v76h-2c-36 -50 -80 -88 -162 -88z" />
    <glyph glyph-name="ucircumflex" unicode="&#xfb;" horiz-adv-x="495" 
d="M128 596l85 106h74l83 -106h-69l-52 71h-2l-53 -71h-66zM218 -12c-100 0 -170 60 -170 164v365h62v-361c0 -78 47 -116 122 -116c88 0 150 66 150 154v323h61v-517h-61v76h-2c-36 -50 -80 -88 -162 -88z" />
    <glyph glyph-name="udieresis" unicode="&#xfc;" horiz-adv-x="495" 
d="M141 627v86h60v-86h-60zM297 627v86h60v-86h-60zM218 -12c-100 0 -170 60 -170 164v365h62v-361c0 -78 47 -116 122 -116c88 0 150 66 150 154v323h61v-517h-61v76h-2c-36 -50 -80 -88 -162 -88z" />
    <glyph glyph-name="yacute" unicode="&#xfd;" horiz-adv-x="469" 
d="M106 -171c-23 0 -37 3 -53 8v55h3c9 -3 23 -7 47 -7c39 0 67 17 86 70l17 46l-199 516h66l124 -334c18 -48 41 -118 41 -118h2s22 70 39 118l119 334h64l-213 -571c-35 -93 -76 -117 -143 -117zM201 592l66 127h82l-94 -127h-54z" />
    <glyph glyph-name="thorn" unicode="&#xfe;" horiz-adv-x="530" 
d="M52 -166v881h62v-287h2c36 61 93 100 175 100c124 0 214 -98 214 -270c0 -159 -82 -271 -218 -271c-79 0 -132 31 -171 88h-2v-241h-62zM284 39c106 0 158 98 158 218c0 129 -56 219 -159 219c-114 0 -174 -97 -174 -220c0 -127 57 -217 175 -217z" />
    <glyph glyph-name="ydieresis" unicode="&#xff;" horiz-adv-x="469" 
d="M106 -171c-23 0 -37 3 -53 8v55h3c9 -3 23 -7 47 -7c39 0 67 17 86 70l17 46l-199 516h66l124 -334c18 -48 41 -118 41 -118h2s22 70 39 118l119 334h64l-213 -571c-35 -93 -76 -117 -143 -117zM131 627v86h60v-86h-60zM287 627v86h60v-86h-60z" />
    <glyph glyph-name="dotlessi" unicode="&#x131;" horiz-adv-x="169" 
d="M54 0v517h62v-517h-62z" />
    <glyph glyph-name="IJ" unicode="&#x132;" horiz-adv-x="662" 
d="M67 0v715h67v-715h-67zM411 -13c-126 0 -202 65 -202 212v27h66v-24c0 -117 47 -158 138 -158c77 0 123 40 123 132v539h67v-544c0 -105 -62 -184 -192 -184z" />
    <glyph glyph-name="ij" unicode="&#x133;" horiz-adv-x="339" 
d="M54 0v517h62v-517h-62zM54 627v88h62v-88h-62zM149 -157v52h1c4 -1 13 -1 17 -1c38 0 56 17 56 59v564h62v-567c0 -84 -43 -108 -110 -108c-8 0 -21 0 -26 1zM223 627v88h62v-88h-62z" />
    <glyph glyph-name="Lslash" unicode="&#x141;" horiz-adv-x="548" 
d="M76 0v245l-81 -43v60l81 43v410h67v-374l262 140v-60l-262 -140v-219h381v-62h-448z" />
    <glyph glyph-name="lslash" unicode="&#x142;" horiz-adv-x="208" 
d="M73 0v328l-68 -57v63l68 56v325h62v-273l76 64v-63l-76 -64v-379h-62z" />
    <glyph glyph-name="napostrophe" unicode="&#x149;" horiz-adv-x="502" 
d="M52 0v517h62v-79h2c35 52 91 90 173 90c96 0 165 -57 165 -161v-367h-62v361c0 78 -45 114 -118 114c-88 0 -160 -62 -160 -147v-328h-62zM-7 552v33c21 8 33 20 33 52v2h-31v76h69v-76c0 -53 -27 -80 -71 -87z" />
    <glyph glyph-name="OE" unicode="&#x152;" horiz-adv-x="1086" 
d="M360 -14c-194 0 -324 159 -324 372s132 372 324 372c98 0 171 -44 217 -116v101h462v-59h-395v-257h365v-58h-365v-279h406v-62h-473v96c-47 -70 -120 -110 -217 -110zM360 46c117 0 217 80 217 197v238c-5 110 -101 189 -217 189c-164 0 -254 -139 -254 -312
s89 -312 254 -312z" />
    <glyph glyph-name="oe" unicode="&#x153;" horiz-adv-x="886" 
d="M255 -13c-145 0 -230 117 -230 271s85 271 230 271c95 0 161 -53 195 -133c33 81 100 133 195 133c54 0 98 -16 132 -45c61 -52 85 -133 85 -237h-382c2 -116 55 -207 172 -207c83 0 125 48 144 116h59c-20 -101 -91 -169 -203 -169c-102 0 -169 51 -202 133
c-34 -82 -100 -133 -195 -133zM255 39c109 0 165 98 165 219s-56 219 -165 219c-110 0 -166 -98 -166 -219s56 -219 166 -219zM479 296h318c-3 102 -48 182 -151 182s-156 -79 -167 -182z" />
    <glyph glyph-name="Scaron" unicode="&#x160;" horiz-adv-x="599" 
d="M312 -13c-188 0 -281 106 -289 245h67c7 -121 89 -189 223 -189c105 0 183 53 183 150c0 101 -67 125 -220 156c-132 26 -225 66 -225 191c0 114 96 189 239 189c159 0 239 -86 252 -209h-65c-12 101 -84 153 -186 153c-109 0 -175 -52 -175 -131c0 -85 66 -111 194 -135
c139 -27 254 -61 254 -211c0 -127 -102 -209 -252 -209zM254 754l-92 103h70l60 -67h2l60 67h68l-94 -103h-74z" />
    <glyph glyph-name="scaron" unicode="&#x161;" horiz-adv-x="451" 
d="M188 596l-83 106h69l52 -71h2l53 71h66l-85 -106h-74zM233 -14c-138 0 -208 75 -214 175h63c9 -87 69 -122 152 -122c86 0 131 40 131 100c0 57 -32 76 -138 100c-105 24 -189 49 -189 149c0 86 74 140 180 140c123 0 180 -62 192 -153h-62c-7 67 -53 102 -130 102
c-80 0 -118 -38 -118 -86c0 -59 49 -73 148 -96c104 -22 179 -48 179 -155c0 -92 -74 -154 -194 -154z" />
    <glyph glyph-name="Ydieresis" unicode="&#x178;" horiz-adv-x="600" 
d="M265 0v312l-258 403h74l218 -346h2l220 346h72l-260 -405v-310h-68zM191 757v86h60v-86h-60zM347 757v86h60v-86h-60z" />
    <glyph glyph-name="Zcaron" unicode="&#x17d;" horiz-adv-x="593" 
d="M261 754l-92 103h70l60 -67h2l60 67h68l-94 -103h-74zM26 0v65l437 590v3h-410v57h491v-57l-440 -595v-3h456v-60h-534z" />
    <glyph glyph-name="zcaron" unicode="&#x17e;" horiz-adv-x="447" 
d="M196 596l-83 106h69l52 -71h2l53 71h66l-85 -106h-74zM28 0v53l302 407v3h-282v54h365v-44l-308 -415v-3h317v-55h-394z" />
    <glyph glyph-name="florin" unicode="&#x192;" horiz-adv-x="335" 
d="M-20 -148v52h18c39 0 63 16 69 58l54 388h-82v50h89l26 177c11 77 50 114 126 114c5 0 34 0 40 -1v-54c-4 1 -30 1 -34 1c-47 0 -64 -21 -71 -67l-24 -170h102v-50h-109l-55 -392c-11 -77 -51 -108 -123 -108c-5 0 -20 1 -26 2z" />
    <glyph glyph-name="circumflex" unicode="&#x2c6;" 
d="M129 596l85 106h74l83 -106h-69l-52 71h-2l-53 -71h-66z" />
    <glyph glyph-name="caron" unicode="&#x2c7;" 
d="M212 596l-83 106h69l52 -71h2l53 71h66l-85 -106h-74z" />
    <glyph glyph-name="uni02C9" unicode="&#x2c9;" 
d="M126 627v56h248v-56h-248z" />
    <glyph glyph-name="breve" unicode="&#x2d8;" 
d="M261 595c-68 0 -117 45 -121 108h51c6 -32 29 -55 70 -55s65 23 71 55h51c-4 -60 -51 -108 -122 -108z" />
    <glyph glyph-name="dotaccent" unicode="&#x2d9;" horiz-adv-x="512" 
d="M225 627v88h61v-88h-61z" />
    <glyph glyph-name="ring" unicode="&#x2da;" horiz-adv-x="509" 
d="M254 603c29 0 48 23 48 51c0 29 -19 51 -48 51s-48 -22 -48 -51c0 -28 19 -51 48 -51zM254 569c-48 0 -87 38 -87 85s39 85 87 85s87 -38 87 -85s-39 -85 -87 -85z" />
    <glyph glyph-name="ogonek" unicode="&#x2db;" 
d="M229 -174c-61 0 -91 30 -91 74c0 45 41 81 78 100h55c-43 -31 -73 -60 -73 -93c0 -22 14 -34 41 -34c16 0 31 3 44 9h3v-43c-13 -7 -32 -13 -57 -13z" />
    <glyph glyph-name="tilde" unicode="&#x2dc;" 
d="M310 600c-44 0 -90 39 -118 39c-14 0 -26 -14 -28 -37h-49c5 57 32 88 74 88c47 0 84 -39 116 -39c18 0 29 15 31 37h48c-3 -54 -30 -88 -74 -88z" />
    <glyph glyph-name="hungarumlaut" unicode="&#x2dd;" 
d="M147 592l37 127h68l-55 -127h-50zM277 592l36 127h69l-55 -127h-50z" />
    <glyph glyph-name="commaaccent" 
d="M214 -214v33c20 8 33 19 33 55v1h-31v79h69v-78c0 -56 -27 -83 -71 -90z" />
    <glyph glyph-name="uni0394" unicode="&#x394;" horiz-adv-x="634" 
d="M88 56h455l-190 492c-15 41 -36 104 -36 104h-2s-19 -61 -36 -104zM21 0v57l257 658h76l259 -659v-56h-592z" />
    <glyph glyph-name="uni03A9" unicode="&#x3a9;" horiz-adv-x="710" 
d="M41 0v58h156v2c-100 55 -161 168 -161 311c0 213 129 359 318 359c190 0 320 -146 320 -359c0 -143 -61 -256 -161 -311v-2h156v-58h-264v59c136 36 199 166 199 314c0 173 -89 297 -250 297s-248 -124 -248 -297c0 -148 67 -278 199 -314v-59h-264z" />
    <glyph glyph-name="uni03BC" unicode="&#x3bc;" horiz-adv-x="499" 
d="M52 -166v683h62v-361c0 -78 46 -116 122 -116c87 0 149 66 149 154v323h62v-517h-62v76h-2c-35 -50 -79 -88 -160 -88c-45 0 -82 13 -107 46h-2v-200h-62z" />
    <glyph glyph-name="pi" unicode="&#x3c0;" horiz-adv-x="580" 
d="M499 -4c-57 0 -98 27 -98 93v377h-238v-466h-62v466h-81v51h528v-51h-86v-367c0 -37 17 -49 51 -49c14 0 28 4 37 8h3v-53c-16 -6 -33 -9 -54 -9z" />
    <glyph glyph-name="endash" unicode="&#x2013;" 
d="M0 228v53h500v-53h-500z" />
    <glyph glyph-name="emdash" unicode="&#x2014;" horiz-adv-x="1000" 
d="M100 228v53h800v-53h-800z" />
    <glyph glyph-name="quoteleft" unicode="&#x2018;" horiz-adv-x="153" 
d="M42 530v91c0 59 27 89 70 96v-33c-19 -8 -32 -23 -32 -60v-8h31v-86h-69z" />
    <glyph glyph-name="quoteright" unicode="&#x2019;" horiz-adv-x="153" 
d="M41 528v33c20 8 32 24 32 61v7h-31v86h69v-91c0 -59 -26 -89 -70 -96z" />
    <glyph glyph-name="quotesinglbase" unicode="&#x201a;" horiz-adv-x="153" 
d="M41 -101v33c20 8 32 23 32 60v8h-31v86h69v-91c0 -59 -26 -89 -70 -96z" />
    <glyph glyph-name="quotedblleft" unicode="&#x201c;" horiz-adv-x="282" 
d="M42 530v91c0 59 27 89 70 96v-33c-19 -8 -32 -23 -32 -60v-8h31v-86h-69zM170 530v91c0 59 27 89 70 96v-33c-19 -8 -32 -23 -32 -60v-8h32v-86h-70z" />
    <glyph glyph-name="quotedblright" unicode="&#x201d;" horiz-adv-x="282" 
d="M41 528v33c20 8 32 24 32 61v7h-31v86h69v-91c0 -59 -26 -89 -70 -96zM169 528v33c20 8 32 24 32 61v7h-31v86h70v-91c0 -59 -27 -89 -71 -96z" />
    <glyph glyph-name="quotedblbase" unicode="&#x201e;" horiz-adv-x="282" 
d="M41 -101v33c20 8 32 23 32 60v8h-31v86h69v-91c0 -59 -26 -89 -70 -96zM169 -101v33c20 8 32 23 32 60v8h-31v86h70v-91c0 -59 -27 -89 -71 -96z" />
    <glyph glyph-name="dagger" unicode="&#x2020;" horiz-adv-x="516" 
d="M227 -104v569h-190v55h190v195h62v-195h190v-55h-190v-569h-62z" />
    <glyph glyph-name="daggerdbl" unicode="&#x2021;" horiz-adv-x="516" 
d="M227 -104v195h-190v55h190v319h-190v55h190v195h62v-195h190v-55h-190v-319h190v-55h-190v-195h-62z" />
    <glyph glyph-name="bullet" unicode="&#x2022;" horiz-adv-x="288" 
d="M145 218c-60 0 -109 48 -109 107s49 108 109 108c59 0 107 -49 107 -108s-48 -107 -107 -107z" />
    <glyph glyph-name="ellipsis" unicode="&#x2026;" horiz-adv-x="551" 
d="M42 0v87h76v-87h-76zM238 0v87h75v-87h-75zM434 0v87h75v-87h-75z" />
    <glyph glyph-name="perthousand" unicode="&#x2030;" horiz-adv-x="1136" 
d="M184 357c55 0 95 51 95 148c0 95 -42 147 -95 147c-55 0 -95 -50 -95 -147c0 -95 40 -148 95 -148zM184 310c-89 0 -154 72 -154 195c0 124 69 195 154 195c84 0 152 -69 152 -195c0 -123 -64 -195 -152 -195zM165 0l395 685h54l-394 -685h-55zM596 34c56 0 95 50 95 147
c0 95 -41 148 -95 148s-95 -51 -95 -148c0 -95 41 -147 95 -147zM596 -14c-88 0 -153 73 -153 195c0 125 69 195 153 195c85 0 153 -68 153 -195c0 -122 -64 -195 -153 -195zM953 34c56 0 95 50 95 147c0 95 -41 148 -95 148c-55 0 -95 -51 -95 -148c0 -95 40 -147 95 -147z
M953 -14c-88 0 -154 73 -154 195c0 125 69 195 154 195s153 -68 153 -195c0 -122 -65 -195 -153 -195z" />
    <glyph glyph-name="guilsinglleft" unicode="&#x2039;" horiz-adv-x="251" 
d="M195 121l-139 113v75l139 113v-69l-104 -81v-2l104 -80v-69z" />
    <glyph glyph-name="guilsinglright" unicode="&#x203a;" horiz-adv-x="251" 
d="M56 121v69l103 81v2l-103 80v69l139 -113v-75z" />
    <glyph glyph-name="fraction" unicode="&#x2044;" horiz-adv-x="183" 
d="M-183 0l489 715h60l-488 -715h-61z" />
    <glyph glyph-name="Euro" unicode="&#x20ac;" horiz-adv-x="604" 
d="M342 -14c-134 0 -229 104 -253 271h-67v46h62c-1 12 -1 25 -1 39c0 12 0 25 1 38h-62v46h67c23 165 117 274 255 274c118 0 200 -77 219 -202h-63c-17 93 -67 147 -157 147c-111 0 -170 -88 -188 -219h210v-46h-213c-1 -13 -1 -26 -1 -38c0 -14 0 -27 1 -39h213v-46h-209
c18 -131 80 -215 188 -215c105 0 158 83 170 198h60c-8 -150 -95 -254 -232 -254z" />
    <glyph glyph-name="afii61289" unicode="&#x2113;" horiz-adv-x="317" 
d="M189 -4c-74 0 -118 35 -118 124v71c-17 -7 -35 -13 -54 -17v48c20 6 38 12 54 19v357c0 77 39 125 110 125c63 0 103 -40 103 -142c0 -184 -57 -296 -151 -358v-98c0 -52 16 -76 62 -76c27 0 51 9 66 19h3v-52c-20 -13 -47 -20 -75 -20zM133 280c13 12 24 25 34 41
c41 56 62 136 62 261c0 71 -18 92 -47 92c-30 0 -49 -21 -49 -76v-318z" />
    <glyph glyph-name="trademark" unicode="&#x2122;" horiz-adv-x="636" 
d="M311 429v286h67l72 -229h1l72 229h68v-286h-43v230h-2s-15 -51 -28 -91l-45 -139h-45l-45 139c-12 37 -27 91 -27 91h-2v-230h-43zM125 429v246h-92v40h230v-40h-92v-246h-46z" />
    <glyph glyph-name="Omega" unicode="&#x2126;" horiz-adv-x="710" 
d="M41 0v58h156v2c-100 55 -161 168 -161 311c0 213 129 359 318 359c190 0 320 -146 320 -359c0 -143 -61 -256 -161 -311v-2h156v-58h-264v59c136 36 199 166 199 314c0 173 -89 297 -250 297s-248 -124 -248 -297c0 -148 67 -278 199 -314v-59h-264z" />
    <glyph glyph-name="estimated" unicode="&#x212e;" horiz-adv-x="621" 
d="M327 -11c-190 0 -298 132 -298 320c0 187 121 318 293 318c71 0 129 -22 173 -59c73 -62 97 -152 96 -267h-431v-210c38 -38 90 -60 167 -60c118 0 183 57 214 155h46c-26 -114 -113 -197 -260 -197zM160 339h303v201c-30 29 -79 48 -141 48c-71 0 -128 -25 -162 -61
v-188z" />
    <glyph glyph-name="partialdiff" unicode="&#x2202;" horiz-adv-x="517" 
d="M243 -13c-131 0 -207 95 -207 221c0 153 93 265 229 265c60 0 115 -25 147 -77c-21 133 -96 246 -275 270v55c269 -28 344 -224 344 -422c0 -174 -79 -312 -238 -312zM244 39c105 0 170 106 170 220c0 92 -54 161 -147 161c-101 0 -166 -87 -166 -212
c0 -86 42 -169 143 -169z" />
    <glyph glyph-name="Delta" unicode="&#x2206;" horiz-adv-x="634" 
d="M88 56h455l-190 492c-15 41 -36 104 -36 104h-2s-19 -61 -36 -104zM21 0v57l257 658h76l259 -659v-56h-592z" />
    <glyph glyph-name="product" unicode="&#x220f;" horiz-adv-x="663" 
d="M69 -100v815h525v-815h-67v755h-391v-755h-67z" />
    <glyph glyph-name="summation" unicode="&#x2211;" horiz-adv-x="591" 
d="M41 -100v60l302 362v2l-302 325v66h509v-59h-429v-2l291 -311v-35l-294 -346v-2h436v-60h-513z" />
    <glyph glyph-name="minus" unicode="&#x2212;" horiz-adv-x="530" 
d="M55 299v54h420v-54h-420z" />
    <glyph glyph-name="uni2215" unicode="&#x2215;" horiz-adv-x="183" 
d="M-183 0l489 715h60l-488 -715h-61z" />
    <glyph glyph-name="uni2219" unicode="&#x2219;" horiz-adv-x="160" 
d="M43 268v87h76v-87h-76z" />
    <glyph glyph-name="radical" unicode="&#x221a;" horiz-adv-x="564" 
d="M228 -100l-141 352h-74v56h121l82 -213c20 -52 44 -127 44 -127h2s20 76 37 130l191 617h63l-256 -815h-69z" />
    <glyph glyph-name="infinity" unicode="&#x221e;" horiz-adv-x="715" 
d="M187 133c-101 0 -150 80 -150 172c0 91 49 171 150 171c81 0 132 -57 173 -123c41 66 89 123 167 123c93 0 151 -69 151 -171c0 -103 -58 -172 -151 -172c-78 0 -126 57 -167 123c-41 -66 -92 -123 -173 -123zM190 187c61 0 101 56 137 117c-36 62 -76 119 -137 119
c-64 0 -92 -54 -92 -118c0 -65 28 -118 92 -118zM524 187c64 0 93 53 93 118c0 64 -29 118 -93 118c-57 0 -94 -57 -130 -119c36 -61 73 -117 130 -117z" />
    <glyph glyph-name="integral" unicode="&#x222b;" horiz-adv-x="356" 
d="M84 -176c-25 0 -45 3 -64 11v54h3c11 -5 31 -10 52 -10c42 0 68 23 68 73v662c0 85 52 127 120 127c25 0 45 -3 64 -10v-55h-3c-11 5 -30 10 -52 10c-41 0 -67 -23 -67 -73v-662c0 -85 -52 -127 -121 -127z" />
    <glyph glyph-name="approxequal" unicode="&#x2248;" horiz-adv-x="530" 
d="M45 178c4 70 44 107 104 107c71 0 159 -48 219 -48c35 0 55 19 57 54h53c-4 -69 -40 -108 -107 -108c-74 0 -168 48 -221 48c-31 0 -49 -20 -51 -53h-54zM45 328c4 71 44 108 104 108c71 0 159 -48 219 -48c35 0 55 19 57 53h53c-4 -68 -40 -107 -107 -107
c-74 0 -168 48 -221 48c-31 0 -49 -20 -51 -54h-54z" />
    <glyph glyph-name="notequal" unicode="&#x2260;" horiz-adv-x="530" 
d="M134 86l55 118h-134v53h158l51 107h-209v53h233l52 110h56l-52 -110h131v-53h-155l-51 -107h206v-53h-230l-55 -118h-56z" />
    <glyph glyph-name="lessequal" unicode="&#x2264;" horiz-adv-x="499" 
d="M445 113l-395 167v67l395 167v-59l-343 -140v-2l343 -141v-59zM50 0v53h395v-53h-395z" />
    <glyph glyph-name="greaterequal" unicode="&#x2265;" horiz-adv-x="499" 
d="M54 113v59l343 141v2l-343 140v59l395 -167v-67zM54 0v53h395v-53h-395z" />
    <glyph glyph-name="lozenge" unicode="&#x25ca;" horiz-adv-x="530" 
d="M265 63h2l161 292l-163 297h-2l-161 -293zM233 0l-202 357l201 358h66l201 -359l-200 -356h-66z" />
    <glyph glyph-name="uniF8FF" unicode="&#xf8ff;" horiz-adv-x="846" 
d="M351 118h144v169h168v144h-168v163h-144v-163h-168v-144h168v-169zM65 0v716h716v-716h-716z" />
    <glyph glyph-name="f_i" unicode="&#xf001;" horiz-adv-x="431" 
d="M91 0v466h-75v51h75v92c0 77 42 111 121 111c7 0 31 -1 35 -1v-53h-27c-52 0 -68 -20 -68 -59v-90h96v-51h-96v-466h-61zM315 0v517h62v-517h-62zM315 627v88h62v-88h-62z" />
    <glyph glyph-name="f_l" unicode="&#xf002;" horiz-adv-x="433" 
d="M91 0v466h-75v51h75v92c0 77 42 111 121 111c7 0 31 -1 35 -1v-53h-27c-52 0 -68 -20 -68 -59v-90h96v-51h-96v-466h-61zM316 0v715h62v-715h-62z" />
    <glyph glyph-name="zero.superior" unicode="&#x2070;" horiz-adv-x="384" 
d="M193 351c68 0 100 60 100 162c0 101 -34 164 -100 164c-68 0 -102 -61 -102 -164c0 -100 34 -162 102 -162zM192 303c-101 0 -160 82 -160 210c0 131 63 210 161 210c97 0 159 -79 159 -210c0 -128 -59 -210 -160 -210z" />
    <glyph glyph-name="four.superior" unicode="&#x2074;" horiz-adv-x="358" 
d="M217 312v97h-193v55l194 255h53v-266h62v-44h-62v-97h-54zM72 453h145v189h-2l-143 -187v-2z" />
    <glyph glyph-name="five.superior" unicode="&#x2075;" horiz-adv-x="345" 
d="M172 303c-82 0 -141 48 -146 121h56c6 -47 37 -73 89 -73c53 0 86 37 86 93s-36 89 -85 89c-40 0 -67 -15 -81 -35h-52l37 217h218v-48h-179l-20 -117h1c21 18 49 30 88 30c69 0 131 -50 131 -137c0 -83 -60 -140 -143 -140z" />
    <glyph glyph-name="six.superior" unicode="&#x2076;" horiz-adv-x="362" 
d="M192 303c-45 0 -79 14 -104 38c-41 39 -56 95 -56 172c0 121 50 210 158 210c81 0 124 -51 131 -110h-56c-4 35 -30 64 -72 64c-74 0 -104 -60 -105 -150h3c23 32 58 52 106 52c76 0 135 -60 135 -138c0 -77 -61 -138 -140 -138zM191 349c50 0 87 37 87 91
c0 53 -38 92 -88 92c-56 0 -94 -38 -94 -91c0 -54 41 -92 95 -92z" />
    <glyph glyph-name="seven.superior" unicode="&#x2077;" horiz-adv-x="328" 
d="M148 312h-59c7 143 80 279 155 353v1h-220v49h279v-47c-78 -76 -145 -202 -155 -356z" />
    <glyph glyph-name="eight.superior" unicode="&#x2078;" horiz-adv-x="367" 
d="M184 305c-80 0 -154 41 -154 122c0 54 33 89 78 106v2c-37 16 -58 44 -58 84c0 65 58 106 133 106c78 0 133 -42 133 -104c0 -41 -21 -69 -58 -85v-2c46 -15 78 -53 78 -105c0 -83 -71 -124 -152 -124zM184 349c59 0 95 33 95 79c0 49 -35 82 -96 82
c-60 0 -95 -33 -95 -82c0 -47 35 -79 96 -79zM183 551c50 0 78 28 78 65c0 38 -27 65 -78 65c-50 0 -77 -27 -77 -65c0 -37 26 -65 77 -65z" />
    <glyph glyph-name="nine.superior" unicode="&#x2079;" horiz-adv-x="364" 
d="M178 303c-81 0 -133 46 -140 114h56c5 -37 33 -68 82 -68c29 0 51 9 66 27c22 24 32 66 34 121h-2c-24 -31 -58 -49 -103 -49c-82 0 -140 60 -141 137c0 77 60 138 144 138c39 0 70 -10 93 -27c48 -35 65 -93 65 -179s-17 -148 -59 -182c-24 -21 -57 -32 -95 -32z
M176 495c55 0 93 37 94 91c0 54 -43 92 -94 92c-53 0 -91 -38 -91 -91c0 -54 37 -92 91 -92z" />
    <glyph glyph-name="zero.denominator" horiz-adv-x="384" 
d="M193 39c68 0 100 60 100 162c0 101 -34 164 -100 164c-68 0 -102 -61 -102 -164c0 -100 34 -162 102 -162zM192 -9c-101 0 -160 82 -160 210c0 131 63 211 161 211c97 0 159 -79 159 -211c0 -128 -59 -210 -160 -210z" />
    <glyph glyph-name="one.denominator" horiz-adv-x="256" 
d="M121 0v293h-92v38c58 1 94 20 102 75h47v-406h-57z" />
    <glyph glyph-name="two.denominator" horiz-adv-x="339" 
d="M28 0c3 94 66 138 124 176c54 34 99 56 99 112c0 49 -30 76 -75 76c-51 0 -83 -32 -84 -95h-54c0 93 57 142 140 142c79 0 131 -54 131 -122c0 -78 -59 -109 -115 -144c-40 -24 -89 -53 -99 -98h212v-47h-279z" />
    <glyph glyph-name="three.denominator" horiz-adv-x="351" 
d="M177 -8c-90 0 -152 53 -151 138h54c3 -59 36 -92 95 -92c55 0 88 28 88 79c0 47 -33 74 -90 74h-27v44h26c49 0 78 25 78 66c0 43 -31 67 -74 67c-54 0 -82 -36 -84 -86h-53c1 76 52 130 138 130c74 0 128 -42 128 -109c0 -45 -26 -73 -63 -86v-2c52 -14 79 -49 79 -103
c0 -77 -63 -120 -144 -120z" />
    <glyph glyph-name="four.denominator" horiz-adv-x="358" 
d="M217 0v97h-193v55l194 256h53v-267h62v-44h-62v-97h-54zM72 141h145v189h-2l-143 -187v-2z" />
    <glyph glyph-name="five.denominator" horiz-adv-x="345" 
d="M172 -8c-82 0 -141 47 -146 120h56c6 -46 37 -73 89 -73c53 0 86 38 86 93c0 56 -36 90 -85 90c-40 0 -67 -16 -81 -36h-52l37 217h218v-48h-179l-20 -117h1c21 18 49 30 88 30c69 0 131 -50 131 -137c0 -83 -60 -139 -143 -139z" />
    <glyph glyph-name="six.denominator" horiz-adv-x="362" 
d="M192 -9c-45 0 -79 14 -104 38c-41 39 -56 95 -56 172c0 121 50 210 158 210c81 0 124 -51 131 -109h-56c-4 34 -30 64 -72 64c-74 0 -104 -61 -105 -151h3c23 32 58 52 106 52c76 0 135 -60 135 -138c0 -77 -61 -138 -140 -138zM191 37c50 0 87 37 87 91
c0 53 -38 92 -88 92c-56 0 -94 -38 -94 -91c0 -54 41 -92 95 -92z" />
    <glyph glyph-name="seven.denominator" horiz-adv-x="328" 
d="M148 0h-59c7 143 80 279 155 353v1h-220v49h279v-47c-78 -76 -145 -202 -155 -356z" />
    <glyph glyph-name="eight.denominator" horiz-adv-x="367" 
d="M184 -7c-80 0 -154 41 -154 123c0 53 33 88 78 105v2c-37 16 -58 44 -58 84c0 65 58 106 133 106c78 0 133 -42 133 -104c0 -41 -21 -69 -58 -85v-2c46 -15 78 -53 78 -105c0 -83 -71 -124 -152 -124zM184 37c59 0 95 34 95 79c0 49 -35 82 -96 82c-60 0 -95 -33 -95 -82
c0 -47 35 -79 96 -79zM183 239c50 0 78 28 78 66c0 37 -27 65 -78 65c-50 0 -77 -28 -77 -65c0 -38 26 -66 77 -66z" />
    <glyph glyph-name="nine.denominator" horiz-adv-x="364" 
d="M178 -8c-81 0 -133 45 -140 114h56c5 -38 33 -69 82 -69c29 0 51 9 66 27c22 24 32 67 34 122h-2c-24 -31 -58 -50 -103 -50c-82 0 -140 60 -141 137c0 78 60 139 144 139c39 0 70 -11 93 -28c48 -35 65 -93 65 -179s-17 -147 -59 -182c-24 -21 -57 -31 -95 -31zM176 183
c55 0 93 37 94 91c0 54 -43 93 -94 93c-53 0 -91 -39 -91 -92c0 -54 37 -92 91 -92z" />
    <glyph glyph-name="zero.numerator" horiz-adv-x="384" 
d="M193 351c68 0 100 60 100 162c0 101 -34 164 -100 164c-68 0 -102 -61 -102 -164c0 -100 34 -162 102 -162zM192 303c-101 0 -160 82 -160 210c0 131 63 210 161 210c97 0 159 -79 159 -210c0 -128 -59 -210 -160 -210z" />
    <glyph glyph-name="one.numerator" horiz-adv-x="256" 
d="M121 312v292h-92v39c58 1 94 20 102 75h47v-406h-57z" />
    <glyph glyph-name="two.numerator" horiz-adv-x="339" 
d="M28 312c3 94 66 137 124 175c54 35 99 56 99 113c0 48 -30 76 -75 76c-51 0 -83 -33 -84 -96h-54c0 94 57 143 140 143c79 0 131 -54 131 -122c0 -78 -59 -109 -115 -144c-40 -24 -89 -54 -99 -98h212v-47h-279z" />
    <glyph glyph-name="three.numerator" horiz-adv-x="351" 
d="M177 303c-90 0 -152 53 -151 138h54c3 -58 36 -91 95 -91c55 0 88 28 88 78c0 48 -33 75 -90 75h-27v44h26c49 0 78 25 78 66c0 42 -31 67 -74 67c-54 0 -82 -36 -84 -87h-53c1 77 52 130 138 130c74 0 128 -41 128 -108c0 -45 -26 -73 -63 -86v-2c52 -14 79 -49 79 -103
c0 -78 -63 -121 -144 -121z" />
    <glyph glyph-name="four.numerator" horiz-adv-x="358" 
d="M217 312v97h-193v55l194 255h53v-266h62v-44h-62v-97h-54zM72 453h145v189h-2l-143 -187v-2z" />
    <glyph glyph-name="five.numerator" horiz-adv-x="345" 
d="M172 303c-82 0 -141 48 -146 121h56c6 -47 37 -73 89 -73c53 0 86 37 86 93s-36 89 -85 89c-40 0 -67 -15 -81 -35h-52l37 217h218v-48h-179l-20 -117h1c21 18 49 30 88 30c69 0 131 -50 131 -137c0 -83 -60 -140 -143 -140z" />
    <glyph glyph-name="six.numerator" horiz-adv-x="362" 
d="M192 303c-45 0 -79 14 -104 38c-41 39 -56 95 -56 172c0 121 50 210 158 210c81 0 124 -51 131 -110h-56c-4 35 -30 64 -72 64c-74 0 -104 -60 -105 -150h3c23 32 58 52 106 52c76 0 135 -60 135 -138c0 -77 -61 -138 -140 -138zM191 349c50 0 87 37 87 91
c0 53 -38 92 -88 92c-56 0 -94 -38 -94 -91c0 -54 41 -92 95 -92z" />
    <glyph glyph-name="seven.numerator" horiz-adv-x="328" 
d="M148 312h-59c7 143 80 279 155 353v1h-220v49h279v-47c-78 -76 -145 -202 -155 -356z" />
    <glyph glyph-name="eight.numerator" horiz-adv-x="367" 
d="M184 305c-80 0 -154 41 -154 122c0 54 33 89 78 106v2c-37 16 -58 44 -58 84c0 65 58 106 133 106c78 0 133 -42 133 -104c0 -41 -21 -69 -58 -85v-2c46 -15 78 -53 78 -105c0 -83 -71 -124 -152 -124zM184 349c59 0 95 33 95 79c0 49 -35 82 -96 82
c-60 0 -95 -33 -95 -82c0 -47 35 -79 96 -79zM183 551c50 0 78 28 78 65c0 38 -27 65 -78 65c-50 0 -77 -27 -77 -65c0 -37 26 -65 77 -65z" />
    <glyph glyph-name="nine.numerator" horiz-adv-x="364" 
d="M178 303c-81 0 -133 46 -140 114h56c5 -37 33 -68 82 -68c29 0 51 9 66 27c22 24 32 66 34 121h-2c-24 -31 -58 -49 -103 -49c-82 0 -140 60 -141 137c0 77 60 138 144 138c39 0 70 -10 93 -27c48 -35 65 -93 65 -179s-17 -148 -59 -182c-24 -21 -57 -32 -95 -32z
M176 495c55 0 93 37 94 91c0 54 -43 92 -94 92c-53 0 -91 -38 -91 -91c0 -54 37 -92 91 -92z" />
    <glyph glyph-name="zero.inferior" unicode="&#x2080;" horiz-adv-x="384" 
d="M193 -111c68 0 100 60 100 162c0 101 -34 164 -100 164c-68 0 -102 -61 -102 -164c0 -100 34 -162 102 -162zM192 -159c-101 0 -160 82 -160 210c0 131 63 211 161 211c97 0 159 -79 159 -211c0 -128 -59 -210 -160 -210z" />
    <glyph glyph-name="one.inferior" unicode="&#x2081;" horiz-adv-x="256" 
d="M121 -150v293h-92v38c58 1 94 20 102 75h47v-406h-57z" />
    <glyph glyph-name="two.inferior" unicode="&#x2082;" horiz-adv-x="339" 
d="M28 -150c3 94 66 138 124 176c54 34 99 56 99 112c0 49 -30 76 -75 76c-51 0 -83 -32 -84 -95h-54c0 93 57 142 140 142c79 0 131 -54 131 -122c0 -78 -59 -109 -115 -144c-40 -24 -89 -53 -99 -98h212v-47h-279z" />
    <glyph glyph-name="three.inferior" unicode="&#x2083;" horiz-adv-x="351" 
d="M177 -158c-90 0 -152 53 -151 138h54c3 -59 36 -92 95 -92c55 0 88 28 88 79c0 47 -33 74 -90 74h-27v44h26c49 0 78 25 78 66c0 43 -31 67 -74 67c-54 0 -82 -36 -84 -86h-53c1 76 52 130 138 130c74 0 128 -42 128 -109c0 -45 -26 -73 -63 -86v-2
c52 -14 79 -49 79 -103c0 -77 -63 -120 -144 -120z" />
    <glyph glyph-name="four.inferior" unicode="&#x2084;" horiz-adv-x="358" 
d="M217 -150v97h-193v55l194 256h53v-267h62v-44h-62v-97h-54zM72 -9h145v189h-2l-143 -187v-2z" />
    <glyph glyph-name="five.inferior" unicode="&#x2085;" horiz-adv-x="345" 
d="M172 -158c-82 0 -141 47 -146 120h56c6 -46 37 -73 89 -73c53 0 86 38 86 93c0 56 -36 90 -85 90c-40 0 -67 -16 -81 -36h-52l37 217h218v-48h-179l-20 -117h1c21 18 49 30 88 30c69 0 131 -50 131 -137c0 -83 -60 -139 -143 -139z" />
    <glyph glyph-name="six.inferior" unicode="&#x2086;" horiz-adv-x="362" 
d="M192 -159c-45 0 -79 14 -104 38c-41 39 -56 95 -56 172c0 121 50 210 158 210c81 0 124 -51 131 -109h-56c-4 34 -30 64 -72 64c-74 0 -104 -61 -105 -151h3c23 32 58 52 106 52c76 0 135 -60 135 -138c0 -77 -61 -138 -140 -138zM191 -113c50 0 87 37 87 91
c0 53 -38 92 -88 92c-56 0 -94 -38 -94 -91c0 -54 41 -92 95 -92z" />
    <glyph glyph-name="seven.inferior" unicode="&#x2087;" horiz-adv-x="328" 
d="M148 -150h-59c7 143 80 279 155 353v1h-220v49h279v-47c-78 -76 -145 -202 -155 -356z" />
    <glyph glyph-name="eight.inferior" unicode="&#x2088;" horiz-adv-x="367" 
d="M184 -157c-80 0 -154 41 -154 123c0 53 33 88 78 105v2c-37 16 -58 44 -58 84c0 65 58 106 133 106c78 0 133 -42 133 -104c0 -41 -21 -69 -58 -85v-2c46 -15 78 -53 78 -105c0 -83 -71 -124 -152 -124zM184 -113c59 0 95 34 95 79c0 49 -35 82 -96 82
c-60 0 -95 -33 -95 -82c0 -47 35 -79 96 -79zM183 89c50 0 78 28 78 66c0 37 -27 65 -78 65c-50 0 -77 -28 -77 -65c0 -38 26 -66 77 -66z" />
    <glyph glyph-name="nine.inferior" unicode="&#x2089;" horiz-adv-x="364" 
d="M178 -158c-81 0 -133 45 -140 114h56c5 -38 33 -69 82 -69c29 0 51 9 66 27c22 24 32 67 34 122h-2c-24 -31 -58 -50 -103 -50c-82 0 -140 60 -141 137c0 78 60 139 144 139c39 0 70 -11 93 -28c48 -35 65 -93 65 -179s-17 -147 -59 -182c-24 -21 -57 -31 -95 -31z
M176 33c55 0 93 37 94 91c0 54 -43 93 -94 93c-53 0 -91 -39 -91 -92c0 -54 37 -92 91 -92z" />
    <glyph glyph-name="acute.cap" 
d="M209 753l66 114h82l-94 -114h-54z" />
    <glyph glyph-name="breve.cap" 
d="M261 755c-68 0 -117 43 -121 106h51c6 -32 29 -53 70 -53s65 21 71 53h51c-4 -60 -51 -106 -122 -106z" />
    <glyph glyph-name="caron.alt" 
d="M214 552v33c21 8 33 20 33 52v2h-32v76h70v-76c0 -53 -27 -80 -71 -87z" />
    <glyph glyph-name="caron.cap" 
d="M212 754l-92 103h70l60 -67h2l60 67h68l-94 -103h-74z" />
    <glyph glyph-name="circumflex.cap" 
d="M120 754l94 103h74l92 -103h-70l-60 68h-2l-60 -68h-68z" />
    <glyph glyph-name="commaaccent.alt" 
d="M214 -214v33c20 8 33 19 33 55v1h-31v79h69v-78c0 -56 -27 -83 -71 -90z" />
    <glyph glyph-name="dieresis.cap" horiz-adv-x="512" 
d="M148 757v86h60v-86h-60zM304 757v86h60v-86h-60z" />
    <glyph glyph-name="dotaccent.cap" horiz-adv-x="512" 
d="M225 757v86h61v-86h-61z" />
    <glyph glyph-name="grave.cap" 
d="M237 753l-94 114h82l66 -114h-54z" />
    <glyph glyph-name="hungarumlaut.cap" 
d="M147 753l37 117h68l-55 -117h-50zM277 753l36 117h69l-55 -117h-50z" />
    <glyph glyph-name="macron.cap" 
d="M126 761v56h248v-56h-248z" />
    <glyph glyph-name="ring.cap" horiz-adv-x="509" 
d="M254 777c29 0 48 23 48 52c0 28 -19 51 -48 51s-48 -23 -48 -51c0 -29 19 -52 48 -52zM254 744c-48 0 -87 38 -87 85s39 85 87 85s87 -38 87 -85s-39 -85 -87 -85z" />
    <glyph glyph-name="tilde.cap" 
d="M310 760c-44 0 -90 39 -118 39c-14 0 -26 -14 -28 -37h-49c5 57 32 87 74 87c47 0 84 -38 116 -38c18 0 29 14 31 36h48c-3 -53 -30 -87 -74 -87z" />
    <glyph glyph-name="R.alt" horiz-adv-x="618" 
d="M64 0v715h291c77 0 130 -23 167 -62c33 -34 50 -79 50 -138c0 -101 -52 -168 -143 -193l170 -322h-74l-162 313h-232v-313h-67zM131 370h212c114 0 162 53 162 143c0 92 -54 143 -159 143h-215v-286z" />
    <glyph glyph-name="space_uni0326" 
d="M214 -214v33c20 8 33 19 33 55v1h-31v79h69v-78c0 -56 -27 -83 -71 -90z" />
    <glyph glyph-name="space_uni0326.alt" 
d="M215 600v78c0 56 27 83 71 90v-33c-20 -8 -33 -19 -33 -55v-1h31v-79h-69z" />
    <glyph glyph-name="onethird" unicode="&#x2153;" horiz-adv-x="804" 
d="M125 312v292h-92v39c58 1 94 20 102 75h47v-406h-57zM77 0l489 715h60l-488 -715h-61zM626 -8c-90 0 -152 53 -151 138h54c3 -59 36 -92 95 -92c55 0 88 28 88 79c0 47 -33 74 -90 74h-27v44h26c49 0 78 25 78 66c0 43 -31 67 -74 67c-54 0 -82 -36 -84 -86h-53
c1 76 52 130 138 130c74 0 128 -42 128 -109c0 -45 -26 -73 -63 -86v-2c52 -14 79 -49 79 -103c0 -77 -63 -120 -144 -120z" />
    <glyph glyph-name="oneeighth" unicode="&#x215b;" horiz-adv-x="789" 
d="M125 312v292h-92v39c58 1 94 20 102 75h47v-406h-57zM69 0l489 715h60l-488 -715h-61zM602 -7c-80 0 -154 41 -154 123c0 53 33 88 78 105v2c-37 16 -58 44 -58 84c0 65 58 106 133 106c78 0 133 -42 133 -104c0 -41 -21 -69 -58 -85v-2c46 -15 78 -53 78 -105
c0 -83 -71 -124 -152 -124zM602 37c59 0 95 34 95 79c0 49 -35 82 -96 82c-60 0 -95 -33 -95 -82c0 -47 35 -79 96 -79zM601 239c50 0 78 28 78 66c0 37 -27 65 -78 65c-50 0 -77 -28 -77 -65c0 -38 26 -66 77 -66z" />
    <glyph glyph-name="threeeighths" unicode="&#x215c;" horiz-adv-x="856" 
d="M181 303c-90 0 -152 53 -151 138h54c3 -58 36 -91 95 -91c55 0 88 28 88 78c0 48 -33 75 -90 75h-27v44h26c49 0 78 25 78 66c0 42 -31 67 -74 67c-54 0 -82 -36 -84 -87h-53c1 77 52 130 138 130c74 0 128 -41 128 -108c0 -45 -26 -73 -63 -86v-2c52 -14 79 -49 79 -103
c0 -78 -63 -121 -144 -121zM145 0l489 715h60l-488 -715h-61zM669 -7c-80 0 -154 41 -154 123c0 53 33 88 78 105v2c-37 16 -58 44 -58 84c0 65 58 106 133 106c78 0 133 -42 133 -104c0 -41 -21 -69 -58 -85v-2c46 -15 78 -53 78 -105c0 -83 -71 -124 -152 -124zM669 37
c59 0 95 34 95 79c0 49 -35 82 -96 82c-60 0 -95 -33 -95 -82c0 -47 35 -79 96 -79zM668 239c50 0 78 28 78 66c0 37 -27 65 -78 65c-50 0 -77 -28 -77 -65c0 -38 26 -66 77 -66z" />
    <glyph glyph-name="fiveeighths" unicode="&#x215d;" horiz-adv-x="844" 
d="M176 303c-82 0 -141 48 -146 121h56c6 -47 37 -73 89 -73c53 0 86 37 86 93s-36 89 -85 89c-40 0 -67 -15 -81 -35h-52l37 217h218v-48h-179l-20 -117h1c21 18 49 30 88 30c69 0 131 -50 131 -137c0 -83 -60 -140 -143 -140zM142 0l489 715h60l-488 -715h-61zM657 -7
c-80 0 -154 41 -154 123c0 53 33 88 78 105v2c-37 16 -58 44 -58 84c0 65 58 106 133 106c78 0 133 -42 133 -104c0 -41 -21 -69 -58 -85v-2c46 -15 78 -53 78 -105c0 -83 -71 -124 -152 -124zM657 37c59 0 95 34 95 79c0 49 -35 82 -96 82c-60 0 -95 -33 -95 -82
c0 -47 35 -79 96 -79zM656 239c50 0 78 28 78 66c0 37 -27 65 -78 65c-50 0 -77 -28 -77 -65c0 -38 26 -66 77 -66z" />
    <glyph glyph-name="twothirds" unicode="&#x2154;" horiz-adv-x="852" 
d="M32 312c3 94 66 137 124 175c54 35 99 56 99 113c0 48 -30 76 -75 76c-51 0 -83 -33 -84 -96h-54c0 94 57 143 140 143c79 0 131 -54 131 -122c0 -78 -59 -109 -115 -144c-40 -24 -89 -54 -99 -98h212v-47h-279zM158 0l489 715h60l-488 -715h-61zM673 -8
c-90 0 -152 53 -151 138h54c3 -59 36 -92 95 -92c55 0 88 28 88 79c0 47 -33 74 -90 74h-27v44h26c49 0 78 25 78 66c0 43 -31 67 -74 67c-54 0 -82 -36 -84 -86h-53c1 76 52 130 138 130c74 0 128 -42 128 -109c0 -45 -26 -73 -63 -86v-2c52 -14 79 -49 79 -103
c0 -77 -63 -120 -144 -120z" />
    <glyph glyph-name="seveneighths" unicode="&#x215e;" horiz-adv-x="791" 
d="M66 0l489 715h60l-488 -715h-61zM604 -7c-80 0 -154 41 -154 123c0 53 33 88 78 105v2c-37 16 -58 44 -58 84c0 65 58 106 133 106c78 0 133 -42 133 -104c0 -41 -21 -69 -58 -85v-2c46 -15 78 -53 78 -105c0 -83 -71 -124 -152 -124zM604 37c59 0 95 34 95 79
c0 49 -35 82 -96 82c-60 0 -95 -33 -95 -82c0 -47 35 -79 96 -79zM603 239c50 0 78 28 78 66c0 37 -27 65 -78 65c-50 0 -77 -28 -77 -65c0 -38 26 -66 77 -66zM152 312h-59c7 143 80 279 155 353v1h-220v49h279v-47c-78 -76 -145 -202 -155 -356z" />
    <glyph glyph-name="a.alt" horiz-adv-x="485" 
d="M196 -12c-96 0 -173 50 -173 147c0 122 97 146 214 158c104 11 138 19 138 71v8c0 70 -43 106 -122 106c-88 0 -135 -39 -143 -115h-61c10 99 77 165 204 165c112 0 181 -50 181 -163v-291c0 -42 9 -65 18 -71v-3h-63c-9 11 -13 31 -14 69v7h-2c-30 -40 -78 -88 -177 -88
zM205 38c114 0 171 78 171 149v90c-33 -17 -85 -26 -135 -32c-90 -10 -153 -22 -153 -111c0 -71 57 -96 117 -96z" />
    <glyph glyph-name="agrave.alt" horiz-adv-x="485" 
d="M196 -12c-96 0 -173 50 -173 147c0 122 97 146 214 158c104 11 138 19 138 71v8c0 70 -43 106 -122 106c-88 0 -135 -39 -143 -115h-61c10 99 77 165 204 165c112 0 181 -50 181 -163v-291c0 -42 9 -65 18 -71v-3h-63c-9 11 -13 31 -14 69v7h-2c-30 -40 -78 -88 -177 -88
zM205 38c114 0 171 78 171 149v90c-33 -17 -85 -26 -135 -32c-90 -10 -153 -22 -153 -111c0 -71 57 -96 117 -96zM237 592l-94 127h82l66 -127h-54z" />
    <glyph glyph-name="aacute.alt" horiz-adv-x="485" 
d="M213 592l66 127h82l-94 -127h-54zM196 -12c-96 0 -173 50 -173 147c0 122 97 146 214 158c104 11 138 19 138 71v8c0 70 -43 106 -122 106c-88 0 -135 -39 -143 -115h-61c10 99 77 165 204 165c112 0 181 -50 181 -163v-291c0 -42 9 -65 18 -71v-3h-63
c-9 11 -13 31 -14 69v7h-2c-30 -40 -78 -88 -177 -88zM205 38c114 0 171 78 171 149v90c-33 -17 -85 -26 -135 -32c-90 -10 -153 -22 -153 -111c0 -71 57 -96 117 -96z" />
    <glyph glyph-name="acircumflex.alt" horiz-adv-x="485" 
d="M129 596l85 106h74l83 -106h-69l-52 71h-2l-53 -71h-66zM196 -12c-96 0 -173 50 -173 147c0 122 97 146 214 158c104 11 138 19 138 71v8c0 70 -43 106 -122 106c-88 0 -135 -39 -143 -115h-61c10 99 77 165 204 165c112 0 181 -50 181 -163v-291c0 -42 9 -65 18 -71v-3
h-63c-9 11 -13 31 -14 69v7h-2c-30 -40 -78 -88 -177 -88zM205 38c114 0 171 78 171 149v90c-33 -17 -85 -26 -135 -32c-90 -10 -153 -22 -153 -111c0 -71 57 -96 117 -96z" />
    <glyph glyph-name="atilde.alt" horiz-adv-x="485" 
d="M196 -12c-96 0 -173 50 -173 147c0 122 97 146 214 158c104 11 138 19 138 71v8c0 70 -43 106 -122 106c-88 0 -135 -39 -143 -115h-61c10 99 77 165 204 165c112 0 181 -50 181 -163v-291c0 -42 9 -65 18 -71v-3h-63c-9 11 -13 31 -14 69v7h-2c-30 -40 -78 -88 -177 -88
zM205 38c114 0 171 78 171 149v90c-33 -17 -85 -26 -135 -32c-90 -10 -153 -22 -153 -111c0 -71 57 -96 117 -96zM311 600c-44 0 -90 39 -118 39c-14 0 -26 -14 -28 -37h-49c5 57 32 88 74 88c47 0 84 -39 116 -39c18 0 29 15 31 37h48c-3 -54 -30 -88 -74 -88z" />
    <glyph glyph-name="adieresis.alt" horiz-adv-x="485" 
d="M143 627v86h60v-86h-60zM299 627v86h60v-86h-60zM196 -12c-96 0 -173 50 -173 147c0 122 97 146 214 158c104 11 138 19 138 71v8c0 70 -43 106 -122 106c-88 0 -135 -39 -143 -115h-61c10 99 77 165 204 165c112 0 181 -50 181 -163v-291c0 -42 9 -65 18 -71v-3h-63
c-9 11 -13 31 -14 69v7h-2c-30 -40 -78 -88 -177 -88zM205 38c114 0 171 78 171 149v90c-33 -17 -85 -26 -135 -32c-90 -10 -153 -22 -153 -111c0 -71 57 -96 117 -96z" />
    <glyph glyph-name="amacron.alt" horiz-adv-x="485" 
d="M196 -12c-96 0 -173 50 -173 147c0 122 97 146 214 158c104 11 138 19 138 71v8c0 70 -43 106 -122 106c-88 0 -135 -39 -143 -115h-61c10 99 77 165 204 165c112 0 181 -50 181 -163v-291c0 -42 9 -65 18 -71v-3h-63c-9 11 -13 31 -14 69v7h-2c-30 -40 -78 -88 -177 -88
zM205 38c114 0 171 78 171 149v90c-33 -17 -85 -26 -135 -32c-90 -10 -153 -22 -153 -111c0 -71 57 -96 117 -96zM126 627v56h248v-56h-248z" />
    <glyph glyph-name="abreve.alt" horiz-adv-x="485" 
d="M196 -12c-96 0 -173 50 -173 147c0 122 97 146 214 158c104 11 138 19 138 71v8c0 70 -43 106 -122 106c-88 0 -135 -39 -143 -115h-61c10 99 77 165 204 165c112 0 181 -50 181 -163v-291c0 -42 9 -65 18 -71v-3h-63c-9 11 -13 31 -14 69v7h-2c-30 -40 -78 -88 -177 -88
zM205 38c114 0 171 78 171 149v90c-33 -17 -85 -26 -135 -32c-90 -10 -153 -22 -153 -111c0 -71 57 -96 117 -96zM251 595c-68 0 -117 45 -121 108h51c6 -32 29 -55 70 -55s65 23 71 55h51c-4 -60 -51 -108 -122 -108z" />
    <glyph glyph-name="aring.alt" horiz-adv-x="485" 
d="M251 603c29 0 48 23 48 51c0 29 -19 51 -48 51s-48 -22 -48 -51c0 -28 19 -51 48 -51zM251 569c-48 0 -87 38 -87 85s39 85 87 85s87 -38 87 -85s-39 -85 -87 -85zM196 -12c-96 0 -173 50 -173 147c0 122 97 146 214 158c104 11 138 19 138 71v8c0 70 -43 106 -122 106
c-88 0 -135 -39 -143 -115h-61c10 99 77 165 204 165c112 0 181 -50 181 -163v-291c0 -42 9 -65 18 -71v-3h-63c-9 11 -13 31 -14 69v7h-2c-30 -40 -78 -88 -177 -88zM205 38c114 0 171 78 171 149v90c-33 -17 -85 -26 -135 -32c-90 -10 -153 -22 -153 -111
c0 -71 57 -96 117 -96z" />
    <glyph glyph-name="aogonek.alt" horiz-adv-x="485" 
d="M402 -174c-60 0 -91 30 -91 74c0 42 35 78 78 103c-9 12 -13 29 -14 66v7h-2c-30 -40 -78 -88 -177 -88c-96 0 -173 50 -173 147c0 122 97 146 214 158c104 11 138 19 138 71v8c0 70 -43 106 -122 106c-88 0 -135 -39 -143 -115h-61c10 99 77 165 204 165
c112 0 181 -50 181 -163v-291c0 -42 8 -61 15 -71v-3c-42 -25 -78 -60 -78 -93c0 -23 14 -35 41 -35c16 0 31 4 45 10h3v-44c-13 -6 -32 -12 -58 -12zM205 38c114 0 171 78 171 149v90c-33 -17 -85 -26 -135 -32c-90 -10 -153 -22 -153 -111c0 -71 57 -96 117 -96z" />
    <glyph glyph-name="Ccedilla.alt" horiz-adv-x="677" 
d="M358 -13c-199 0 -322 151 -322 370c0 216 123 373 325 373c151 0 251 -84 275 -217h-66c-19 93 -93 159 -210 159c-168 0 -254 -139 -254 -315c0 -179 89 -311 253 -311c138 0 213 96 224 214h65c-4 -70 -31 -140 -74 -187c-50 -56 -125 -86 -216 -86zM317 -168v30
c21 3 35 12 36 42h-34v67h70v-58c0 -55 -25 -79 -72 -81z" />
    <glyph glyph-name="Scedilla.alt" horiz-adv-x="599" 
d="M312 -13c-188 0 -281 106 -289 245h67c7 -121 89 -189 223 -189c105 0 183 53 183 150c0 101 -67 125 -220 156c-132 26 -225 66 -225 191c0 114 96 189 239 189c159 0 239 -86 252 -209h-65c-12 101 -84 153 -186 153c-109 0 -175 -52 -175 -131c0 -85 66 -111 194 -135
c139 -27 254 -61 254 -211c0 -127 -102 -209 -252 -209zM257 -168v30c21 3 35 12 36 42h-34v67h70v-58c0 -55 -25 -79 -72 -81z" />
    <glyph glyph-name="ccedilla.alt" horiz-adv-x="491" 
d="M260 -13c-151 0 -235 117 -235 271s86 271 236 271c114 0 191 -62 208 -168h-62c-15 77 -66 116 -146 116c-119 0 -172 -99 -172 -219s54 -218 171 -218c88 0 143 55 153 138h59c-12 -117 -89 -191 -212 -191zM215 -168v30c21 3 35 12 35 42h-34v67h71v-58
c0 -55 -26 -79 -72 -81z" />
    <glyph glyph-name="scedilla.alt" horiz-adv-x="451" 
d="M233 -14c-138 0 -208 75 -214 175h63c9 -87 69 -122 152 -122c86 0 131 40 131 100c0 57 -32 76 -138 100c-105 24 -189 49 -189 149c0 86 74 140 180 140c123 0 180 -62 192 -153h-62c-7 67 -53 102 -130 102c-80 0 -118 -38 -118 -86c0 -59 49 -73 148 -96
c104 -22 179 -48 179 -155c0 -92 -74 -154 -194 -154zM190 -168v30c21 3 35 12 36 42h-34v67h70v-58c0 -55 -25 -79 -72 -81z" />
    <glyph glyph-name="hyphen.cap" horiz-adv-x="342" 
d="M35 297v61h272v-61h-272z" />
    <glyph glyph-name="endash.cap" 
d="M0 301v53h500v-53h-500z" />
    <glyph glyph-name="emdash.cap" horiz-adv-x="1000" 
d="M100 301v53h800v-53h-800z" />
    <glyph glyph-name="questiondown.cap" horiz-adv-x="497" 
d="M243 -13c-126 0 -202 80 -202 183c0 98 54 141 104 183c73 61 93 89 94 189h60c-1 -114 -28 -159 -103 -222c-45 -38 -89 -73 -89 -149s54 -128 139 -128c103 0 158 71 161 168h63c-2 -116 -69 -224 -227 -224zM231 628v87h76v-87h-76z" />
    <glyph glyph-name="exclamdown.cap" horiz-adv-x="212" 
d="M72 0v229l15 313h39l14 -313v-229h-68zM68 628v87h76v-87h-76z" />
    <glyph glyph-name="parenleft.cap" horiz-adv-x="284" 
d="M210 -88c-79 122 -137 265 -137 453c0 174 64 315 137 419h54c-67 -110 -120 -255 -120 -419c0 -177 42 -319 120 -453h-54z" />
    <glyph glyph-name="parenright.cap" horiz-adv-x="284" 
d="M20 -88c71 120 120 263 120 433c0 171 -45 315 -120 439h54c77 -114 138 -257 138 -439c0 -180 -62 -322 -138 -433h-54z" />
    <glyph glyph-name="bracketleft.cap" horiz-adv-x="288" 
d="M80 -88v872h175v-53h-111v-764h111v-55h-175z" />
    <glyph glyph-name="bracketright.cap" horiz-adv-x="288" 
d="M33 -88v55h111v764h-111v53h175v-872h-175z" />
    <glyph glyph-name="braceleft.cap" horiz-adv-x="288" 
d="M228 -88c-87 0 -135 40 -135 139v204c0 45 -16 68 -69 70v54c52 1 69 24 69 69v198c0 100 48 138 135 138h18v-53h-16c-52 0 -73 -21 -73 -86v-201c0 -52 -17 -80 -56 -91v-2c39 -12 56 -39 56 -91v-208c0 -65 21 -85 73 -85h16v-55h-18z" />
    <glyph glyph-name="braceright.cap" horiz-adv-x="288" 
d="M42 -88v55h16c51 0 73 19 73 84v208c0 51 17 79 56 90v3c-39 11 -56 39 -56 90v202c0 65 -22 87 -73 87h-16v53h18c87 0 135 -40 135 -139v-198c0 -45 15 -68 69 -69v-55c-53 -1 -69 -24 -69 -69v-204c0 -100 -48 -138 -135 -138h-18z" />
    <glyph glyph-name="guillemotleft.cap" horiz-adv-x="411" 
d="M185 166l-129 113v75l129 113v-69l-93 -81v-2l93 -80v-69zM355 166l-129 113v75l129 113v-69l-93 -81v-2l93 -80v-69z" />
    <glyph glyph-name="guillemotright.cap" horiz-adv-x="411" 
d="M56 166v69l93 81v2l-93 80v69l129 -113v-75zM226 166v69l93 81v2l-93 80v69l129 -113v-75z" />
    <glyph glyph-name="guilsinglleft.cap" horiz-adv-x="251" 
d="M195 166l-139 113v75l139 113v-69l-104 -81v-2l104 -80v-69z" />
    <glyph glyph-name="guilsinglright.cap" horiz-adv-x="251" 
d="M56 166v69l103 81v2l-103 80v69l139 -113v-75z" />
    <glyph glyph-name="uni24C5" unicode="&#x24c5;" horiz-adv-x="812" 
d="M271 142v422h173c47 0 81 -13 104 -38c21 -21 32 -51 32 -87c0 -78 -48 -125 -137 -125h-114v-172h-58zM329 361h106c60 0 87 30 87 77c0 50 -30 77 -84 77h-109v-154zM406 18c185 0 322 143 322 337s-137 338 -322 338s-322 -144 -322 -338s137 -337 322 -337zM406 -17
c-205 0 -365 158 -365 372s160 373 365 373s365 -159 365 -373s-160 -372 -365 -372z" />
    <glyph glyph-name="registered.alt" horiz-adv-x="812" 
d="M259 147v418h188c77 0 126 -46 126 -115c0 -50 -24 -86 -75 -101v-2c43 -13 58 -41 63 -100c4 -63 7 -92 18 -97v-3h-57c-10 5 -13 33 -16 94s-29 84 -86 84h-104v-178h-57zM316 371h116c55 0 83 28 83 72c0 45 -23 73 -79 73h-120v-145zM406 18c185 0 322 143 322 337
s-137 338 -322 338s-322 -144 -322 -338s137 -337 322 -337zM406 -17c-205 0 -365 158 -365 372s160 373 365 373s365 -159 365 -373s-160 -372 -365 -372z" />
    <glyph glyph-name="uni2032" unicode="&#x2032;" horiz-adv-x="166" 
d="M33 501l41 214h59l-41 -214h-59z" />
    <glyph glyph-name="uni2033" unicode="&#x2033;" horiz-adv-x="296" 
d="M33 501l41 214h59l-41 -214h-59zM164 501l40 214h59l-40 -214h-59z" />
    <glyph glyph-name="dollar.cap" horiz-adv-x="562" 
d="M260 -79v88c-157 11 -233 110 -239 229h64c6 -102 68 -166 175 -176v288c-128 27 -211 64 -211 183c0 107 86 179 211 184v57h47v-58c124 -10 193 -82 204 -187h-62c-8 79 -63 126 -142 134v-262c126 -25 223 -59 223 -192c0 -116 -93 -196 -223 -201v-87h-47zM260 410
v254c-92 -5 -149 -55 -149 -128s45 -104 149 -126zM307 61c89 5 159 58 159 144c0 83 -47 110 -159 135v-279z" />
    <glyph glyph-name="Euro.cap" horiz-adv-x="629" 
d="M356 -14c-139 0 -239 108 -264 282h-70v48h66c-2 13 -2 26 -2 41c0 13 0 27 2 40h-66v48h70c25 172 122 285 266 285c124 0 208 -79 228 -210h-65c-17 97 -70 152 -163 152c-116 0 -180 -90 -198 -227h220v-48h-224c-1 -13 -1 -27 -1 -40c0 -15 0 -28 1 -41h224v-48h-219
c18 -136 85 -223 198 -223c110 0 164 86 176 206h64c-10 -157 -100 -265 -243 -265z" />
    <glyph glyph-name="sterling.cap" horiz-adv-x="556" 
d="M385 -11c-95 0 -122 52 -204 52c-42 0 -79 -24 -109 -45l-38 54c63 47 107 100 107 187c0 28 -7 58 -17 85h-86v53h68c-18 47 -36 96 -36 152c0 110 78 203 224 203c123 0 221 -78 223 -228h-65c-2 124 -76 172 -161 172c-98 0 -154 -60 -154 -148c0 -50 21 -99 39 -151
h165v-53h-149c6 -24 10 -50 10 -74c0 -76 -27 -131 -77 -173l2 -2c27 12 44 19 76 19c76 0 119 -45 185 -45c43 0 78 24 108 51l38 -47c-43 -37 -84 -62 -149 -62z" />
    <glyph glyph-name="yen.cap" horiz-adv-x="550" 
d="M242 0v169h-186v47h186v77h-186v47h173l-214 375h75l186 -335h2l185 335h72l-214 -375h174v-47h-187v-77h187v-47h-187v-169h-66z" />
    <glyph glyph-name="zero.cap" horiz-adv-x="613" 
d="M308 46c130 0 198 109 198 312c0 199 -71 313 -198 313c-130 0 -201 -109 -201 -313c0 -199 71 -312 201 -312zM307 -14c-172 0 -269 144 -269 372c0 232 106 372 270 372c163 0 267 -138 267 -372c0 -228 -96 -372 -268 -372z" />
    <glyph glyph-name="one.cap" horiz-adv-x="339" 
d="M183 0v539h-151v44c109 5 157 29 168 136h50v-719h-67z" />
    <glyph glyph-name="two.cap" horiz-adv-x="537" 
d="M30 0c3 184 127 254 241 322c97 59 163 94 163 199c0 97 -60 152 -153 152c-49 0 -88 -15 -116 -43c-32 -30 -48 -74 -50 -144h-68c1 84 26 143 70 184c43 40 103 60 168 60c135 0 217 -89 217 -208c0 -143 -101 -191 -206 -254c-82 -49 -175 -104 -189 -206h386v-62
h-463z" />
    <glyph glyph-name="three.cap" horiz-adv-x="550" 
d="M279 -14c-143 0 -253 88 -254 236h67c4 -115 78 -177 186 -177s170 57 170 156c0 97 -64 151 -176 151h-49v55h48c98 0 153 50 153 133c0 89 -63 135 -148 135c-103 0 -162 -71 -163 -171h-65c1 132 85 226 231 226c119 0 212 -71 212 -190c0 -82 -44 -131 -108 -156v-3
c91 -29 134 -93 134 -185c0 -130 -97 -210 -238 -210z" />
    <glyph glyph-name="four.cap" horiz-adv-x="560" 
d="M358 0v184h-334v62l344 476h56v-483h112v-55h-112v-184h-66zM90 239h268v371h-2l-266 -368v-3z" />
    <glyph glyph-name="five.cap" horiz-adv-x="533" 
d="M262 -14c-137 0 -231 85 -236 207h67c11 -91 66 -147 168 -147c107 0 170 76 170 185c0 110 -69 177 -165 177c-81 0 -130 -32 -158 -74h-63l62 381h357v-59h-308l-40 -246h2c39 35 88 57 158 57c117 0 224 -82 224 -238c0 -144 -96 -243 -238 -243z" />
    <glyph glyph-name="six.cap" horiz-adv-x="563" 
d="M299 -14c-73 0 -124 23 -166 61c-70 63 -95 167 -95 315c0 213 91 368 265 368c126 0 195 -81 206 -185h-66c-7 76 -57 127 -138 127c-141 0 -201 -126 -200 -328h2c43 75 108 117 194 117c134 0 226 -100 226 -233c1 -136 -91 -242 -228 -242zM297 42
c98 0 164 77 164 184c0 106 -66 178 -164 178c-101 0 -176 -74 -176 -181c0 -108 73 -181 176 -181z" />
    <glyph glyph-name="seven.cap" horiz-adv-x="508" 
d="M134 0c19 250 137 509 287 654v2h-398v59h467v-57c-142 -139 -263 -377 -284 -658h-72z" />
    <glyph glyph-name="eight.cap" horiz-adv-x="570" 
d="M286 -14c-132 0 -253 72 -253 215c0 99 61 159 142 187v3c-66 26 -108 82 -108 156c0 108 93 183 217 183c130 0 218 -78 218 -183c0 -74 -43 -128 -110 -155v-3c81 -24 145 -95 145 -188c0 -146 -120 -215 -251 -215zM286 43c114 0 182 66 182 158
c0 94 -68 160 -185 160c-115 0 -182 -66 -182 -160c0 -93 68 -158 185 -158zM283 415c95 0 153 57 153 129c0 74 -55 130 -152 130c-96 0 -151 -56 -151 -130c0 -72 53 -129 150 -129z" />
    <glyph glyph-name="nine.cap" horiz-adv-x="564" 
d="M266 -14c-124 0 -211 75 -218 189h69c7 -79 62 -131 148 -131c53 0 93 16 123 47c51 53 73 146 74 277h-2c-41 -71 -110 -112 -195 -112c-134 0 -228 99 -228 233c-1 135 96 241 233 241c70 0 119 -21 159 -56c75 -60 99 -167 99 -320c0 -133 -28 -240 -96 -305
c-41 -41 -97 -63 -166 -63zM270 312c103 0 176 74 176 180c0 110 -74 181 -174 181c-101 0 -169 -75 -169 -182c0 -108 67 -179 167 -179z" />
    <glyph glyph-name="percent.cap" horiz-adv-x="799" 
d="M184 387c55 0 95 51 95 148c0 95 -42 147 -95 147c-55 0 -95 -50 -95 -147c0 -95 40 -148 95 -148zM184 340c-89 0 -154 72 -154 195c0 124 69 195 154 195c84 0 152 -69 152 -195c0 -123 -64 -195 -152 -195zM167 0l411 715h54l-410 -715h-55zM616 34c56 0 95 50 95 147
c0 95 -41 148 -95 148s-95 -51 -95 -148c0 -95 41 -147 95 -147zM616 -14c-88 0 -153 73 -153 195c0 125 69 195 153 195c85 0 153 -68 153 -195c0 -122 -64 -195 -153 -195z" />
    <glyph glyph-name="perthousand.cap" horiz-adv-x="1136" 
d="M184 387c55 0 95 51 95 148c0 95 -42 147 -95 147c-55 0 -95 -50 -95 -147c0 -95 40 -148 95 -148zM184 340c-89 0 -154 72 -154 195c0 124 69 195 154 195c84 0 152 -69 152 -195c0 -123 -64 -195 -152 -195zM157 0l411 715h54l-410 -715h-55zM596 34c56 0 95 50 95 147
c0 95 -41 148 -95 148s-95 -51 -95 -148c0 -95 41 -147 95 -147zM596 -14c-88 0 -153 73 -153 195c0 125 69 195 153 195c85 0 153 -68 153 -195c0 -122 -64 -195 -153 -195zM953 34c56 0 95 50 95 147c0 95 -41 148 -95 148c-55 0 -95 -51 -95 -148c0 -95 40 -147 95 -147z
M953 -14c-88 0 -154 73 -154 195c0 125 69 195 154 195s153 -68 153 -195c0 -122 -65 -195 -153 -195z" />
    <glyph glyph-name="uni2009" unicode="&#x2009;" horiz-adv-x="55" 
 />
    </font>
</defs>
</svg>
